<?xml version="1.0" encoding="UTF-8" standalone="no"?>
<!DOCTYPE svg PUBLIC "-//W3C//DTD SVG 1.1//EN" "http://www.w3.org/Graphics/SVG/1.1/DTD/svg11.dtd">
<svg xmlns="http://www.w3.org/2000/svg" version="1.1" viewBox="0.00 0.00 783.00 232.00">
<g stroke-width="2.00" fill="none" stroke-linecap="butt">
<path stroke="#b48c8a" vector-effect="non-scaling-stroke" d="
  M 664.61 102.65
  C 659.75 96.97 655.54 89.43 649.79 79.98
  C 638.03 60.66 620.30 41.04 600.57 27.93
  Q 585.74 18.08 568.87 24.39
  C 561.94 26.98 556.85 36.05 562.29 42.42
  C 564.90 45.47 570.29 46.46 573.33 43.37
  C 576.64 40.01 576.04 35.00 572.27 32.16
  C 571.33 31.45 569.38 31.13 568.25 30.70
  A 0.46 0.45 33.8 0 1 568.10 29.95
  C 581.56 17.10 605.33 40.89 614.30 50.77
  Q 615.98 52.63 615.98 54.50
  Q 615.96 65.29 616.12 126.96
  A 1.04 1.03 -88.7 0 1 615.04 128.00
  L 608.43 127.72
  A 0.98 0.98 0.0 0 0 607.41 128.70
  L 607.41 129.14
  A 1.16 1.16 0.0 0 0 608.57 130.30
  L 629.46 130.30
  A 0.96 0.96 0.0 0 0 630.42 129.34
  L 630.42 128.91
  A 0.93 0.93 0.0 0 0 629.49 127.98
  L 622.72 127.98
  A 1.16 1.16 0.0 0 1 621.56 126.82
  L 621.56 61.11
  A 0.49 0.49 0.0 0 1 622.50 60.90
  Q 623.62 63.26 624.76 64.99
  Q 636.21 82.43 649.08 102.93
  C 665.65 129.34 690.60 154.94 720.66 165.08
  Q 729.80 168.16 739.50 167.74
  A 2.09 2.08 -84.5 0 0 741.45 166.12
  L 741.47 166.02
  A 1.48 1.47 10.0 0 0 740.21 164.23
  C 711.77 160.77 687.12 139.21 672.19 115.76
  C 671.32 114.39 670.58 113.91 670.58 112.02
  Q 670.70 68.57 670.58 56.03
  A 0.75 0.75 0.0 0 1 671.33 55.27
  L 678.43 55.27
  A 0.82 0.82 0.0 0 0 679.25 54.45
  L 679.25 53.78
  A 0.82 0.81 -0.0 0 0 678.43 52.97
  L 657.24 52.97
  A 1.05 1.04 1.1 0 0 656.19 53.97
  L 656.17 54.38
  A 0.82 0.82 0.0 0 0 656.99 55.23
  L 664.43 55.23
  A 0.60 0.60 0.0 0 1 665.03 55.83
  L 665.03 102.50
  A 0.24 0.24 0.0 0 1 664.61 102.65"
/>
<path stroke="#b48c8a" vector-effect="non-scaling-stroke" d="
  M 443.97 72.09
  A 0.87 0.87 0.0 0 0 444.82 71.20
  L 444.37 52.36
  A 0.67 0.66 -1.7 0 0 443.67 51.71
  Q 441.93 51.80 439.80 55.07
  A 1.74 1.74 0.0 0 1 437.73 55.76
  C 436.71 55.38 435.17 54.15 433.87 53.64
  Q 420.45 48.45 410.95 56.65
  C 405.14 61.67 402.43 69.83 403.19 77.28
  Q 404.44 89.46 416.18 93.39
  Q 419.04 94.35 430.71 97.55
  Q 440.54 100.24 442.09 108.42
  C 444.45 120.92 435.06 130.20 422.30 128.00
  Q 411.04 126.05 406.21 114.02
  Q 405.66 112.67 404.53 107.37
  A 1.44 1.43 83.2 0 0 403.09 106.23
  L 402.49 106.25
  A 1.27 1.27 0.0 0 0 401.25 107.55
  L 401.76 129.03
  A 1.59 1.58 62.9 0 0 404.61 129.95
  L 408.08 125.36
  A 0.80 0.80 0.0 0 1 409.25 125.25
  Q 418.39 133.46 430.74 131.00
  C 440.65 129.03 446.72 120.56 448.20 110.94
  C 450.48 96.14 444.90 86.24 430.56 82.71
  Q 422.32 80.68 416.99 78.77
  Q 408.23 75.63 409.55 66.28
  C 410.77 57.64 419.75 53.18 427.73 55.01
  Q 436.24 56.96 440.03 65.00
  Q 440.52 66.04 441.68 70.96
  A 1.50 1.49 82.6 0 0 443.17 72.11
  L 443.97 72.09"
/>
<path stroke="#b48c8a" vector-effect="non-scaling-stroke" d="
  M 484.72 128.48
  A 0.54 0.54 0.0 0 0 484.18 127.94
  L 476.07 127.94
  A 0.54 0.54 0.0 0 1 475.56 127.22
  L 482.53 106.89
  A 0.54 0.54 0.0 0 1 483.05 106.53
  L 505.24 106.53
  A 0.54 0.54 0.0 0 1 505.75 106.90
  L 512.50 127.27
  A 0.54 0.54 0.0 0 1 511.99 127.98
  L 503.23 127.98
  A 0.54 0.54 0.0 0 0 502.69 128.52
  L 502.69 129.79
  A 0.54 0.54 0.0 0 0 503.23 130.33
  L 533.65 130.33
  A 0.54 0.54 0.0 0 0 534.19 129.79
  L 534.19 128.46
  A 0.54 0.54 0.0 0 0 533.65 127.92
  L 526.47 127.92
  A 0.54 0.54 0.0 0 1 525.96 127.55
  L 501.26 53.01
  A 0.54 0.54 0.0 0 0 500.75 52.64
  L 487.95 52.64
  A 0.54 0.54 0.0 0 0 487.41 53.18
  L 487.41 54.48
  A 0.54 0.54 0.0 0 0 487.95 55.02
  L 495.56 55.02
  A 0.54 0.54 0.0 0 1 496.07 55.74
  L 471.42 127.48
  A 0.54 0.54 0.0 0 1 470.90 127.84
  L 464.79 127.84
  A 0.54 0.54 0.0 0 0 464.25 128.38
  L 464.25 129.75
  A 0.54 0.54 0.0 0 0 464.79 130.29
  L 484.18 130.29
  A 0.54 0.54 0.0 0 0 484.72 129.75
  L 484.72 128.48"
/>
<path stroke="#b48c8a" vector-effect="non-scaling-stroke" d="
  M 78.30 92.14
  Q 91.58 92.14 93.05 92.26
  A 0.43 0.43 0.0 0 1 93.45 92.69
  L 93.45 127.00
  A 0.98 0.98 0.0 0 1 92.47 127.98
  L 84.31 127.98
  A 0.83 0.83 0.0 0 0 83.48 128.81
  L 83.48 129.40
  A 0.90 0.89 -0.0 0 0 84.38 130.29
  L 114.47 130.29
  A 0.94 0.93 0.0 0 0 115.41 129.36
  L 115.41 128.82
  A 0.90 0.90 0.0 0 0 114.51 127.92
  L 106.82 127.92
  A 0.74 0.74 0.0 0 1 106.08 127.18
  L 106.08 56.32
  A 1.11 1.11 0.0 0 1 107.19 55.21
  L 114.42 55.21
  A 0.89 0.89 0.0 0 0 115.31 54.32
  L 115.31 53.87
  A 0.92 0.92 0.0 0 0 114.39 52.95
  L 84.52 52.95
  A 0.87 0.86 0.0 0 0 83.65 53.81
  L 83.65 54.20
  A 1.00 1.00 0.0 0 0 84.65 55.20
  L 92.49 55.20
  A 0.93 0.92 0.0 0 1 93.42 56.12
  L 93.42 88.59
  A 0.57 0.56 -1.5 0 1 92.88 89.15
  Q 91.21 89.22 78.30 89.22
  Q 65.40 89.22 63.72 89.15
  A 0.57 0.56 1.4 0 1 63.18 88.60
  L 63.17 56.13
  A 0.93 0.92 -0.0 0 1 64.10 55.21
  L 71.94 55.20
  A 1.00 1.00 0.0 0 0 72.94 54.20
  L 72.94 53.81
  A 0.87 0.86 -0.0 0 0 72.07 52.95
  L 42.20 52.97
  A 0.92 0.92 0.0 0 0 41.28 53.89
  L 41.28 54.34
  A 0.89 0.89 0.0 0 0 42.17 55.23
  L 49.40 55.23
  A 1.11 1.11 0.0 0 1 50.51 56.33
  L 50.54 127.19
  A 0.74 0.74 0.0 0 1 49.81 127.94
  L 42.12 127.94
  A 0.90 0.90 0.0 0 0 41.22 128.84
  L 41.22 129.38
  A 0.94 0.93 -0.0 0 0 42.16 130.31
  L 72.25 130.29
  A 0.90 0.89 -0.0 0 0 73.15 129.40
  L 73.15 128.81
  A 0.83 0.83 0.0 0 0 72.32 127.98
  L 64.16 127.99
  A 0.98 0.98 0.0 0 1 63.17 127.01
  L 63.16 92.70
  A 0.43 0.43 0.0 0 1 63.56 92.27
  Q 65.02 92.15 78.30 92.14"
/>
<path stroke="#b48c8a" vector-effect="non-scaling-stroke" d="
  M 567.66 52.93
  Q 560.47 52.93 553.00 52.97
  Q 552.09 52.98 551.75 53.83
  A 1.03 0.99 -78.4 0 0 552.64 55.24
  Q 556.66 55.31 560.30 55.20
  A 0.95 0.95 0.0 0 1 561.27 56.13
  Q 561.27 56.47 561.27 91.62
  Q 561.28 126.78 561.28 127.11
  A 0.95 0.95 0.0 0 1 560.31 128.05
  Q 556.67 127.94 552.65 128.01
  A 1.03 0.99 78.4 0 0 551.76 129.42
  Q 552.10 130.27 553.01 130.28
  Q 560.48 130.32 567.67 130.32
  Q 574.86 130.32 582.34 130.28
  Q 583.25 130.27 583.59 129.42
  A 1.03 0.99 -78.4 0 0 582.70 128.01
  Q 578.68 127.94 575.04 128.05
  A 0.95 0.95 0.0 0 1 574.07 127.11
  Q 574.07 126.78 574.06 91.62
  Q 574.06 56.47 574.06 56.13
  A 0.95 0.95 0.0 0 1 575.03 55.20
  Q 578.67 55.31 582.69 55.24
  A 1.03 0.99 78.4 0 0 583.57 53.83
  Q 583.23 52.98 582.33 52.97
  Q 574.85 52.93 567.66 52.93"
/>
<path stroke="#b48c8a" vector-effect="non-scaling-stroke" d="
  M 756.70 52.99
  L 695.53 52.99
  A 0.65 0.65 0.0 0 0 694.88 53.62
  L 693.92 76.08
  A 1.23 1.23 0.0 0 0 694.85 77.32
  L 694.89 77.33
  A 0.94 0.93 -78.2 0 0 696.02 76.59
  C 697.32 69.64 701.69 56.64 709.78 55.80
  Q 714.30 55.33 719.35 55.24
  A 0.68 0.68 0.0 0 1 720.04 55.92
  L 720.04 127.26
  A 0.83 0.83 0.0 0 1 719.17 128.09
  L 710.04 127.71
  A 0.79 0.79 0.0 0 0 709.21 128.46
  L 709.16 129.63
  A 0.68 0.67 1.2 0 0 709.84 130.33
  L 742.57 130.33
  A 0.69 0.69 0.0 0 0 743.26 129.64
  L 743.26 129.10
  A 0.99 0.99 0.0 0 0 742.31 128.11
  L 733.25 127.73
  A 0.49 0.49 0.0 0 1 732.78 127.24
  L 732.78 55.90
  A 0.66 0.66 0.0 0 1 733.44 55.24
  C 742.37 55.27 748.29 55.49 752.49 64.52
  Q 754.84 69.58 757.09 76.97
  A 0.86 0.86 0.0 0 0 758.76 76.91
  Q 758.94 76.12 758.83 74.25
  Q 758.34 66.09 757.30 53.54
  A 0.60 0.60 0.0 0 0 756.70 52.99"
/>
<path stroke="#b48c8a" vector-effect="non-scaling-stroke" d="
  M 195.72 74.40
  A 0.43 0.43 0.0 0 0 196.41 74.03
  L 195.36 53.80
  A 0.85 0.85 0.0 0 0 194.51 53.00
  L 141.67 53.00
  A 1.25 1.24 2.5 0 0 140.43 54.13
  L 140.41 54.41
  A 0.74 0.73 -87.2 0 0 141.14 55.22
  L 149.00 55.22
  A 0.90 0.90 0.0 0 1 149.90 56.12
  L 149.90 126.99
  A 0.99 0.99 0.0 0 1 148.91 127.98
  L 140.83 127.98
  A 0.80 0.79 -87.6 0 0 140.04 128.71
  L 140.00 129.11
  A 1.10 1.10 0.0 0 0 141.10 130.31
  L 196.63 130.31
  A 0.72 0.72 0.0 0 0 197.35 129.66
  L 199.38 107.32
  A 1.11 1.10 -76.9 0 0 198.69 106.20
  L 198.64 106.18
  A 0.79 0.78 -75.6 0 0 197.63 106.78
  Q 195.95 115.46 191.42 122.45
  Q 188.13 127.53 181.73 127.74
  Q 172.06 128.05 162.55 127.94
  A 0.78 0.78 0.0 0 1 161.78 127.16
  L 161.78 93.16
  A 0.71 0.70 -2.7 0 1 162.42 92.46
  Q 165.66 92.13 170.89 92.92
  Q 176.77 93.81 177.93 99.59
  Q 179.03 105.11 178.83 107.07
  A 0.57 0.57 0.0 0 0 179.42 107.70
  L 179.86 107.68
  A 0.77 0.77 0.0 0 0 180.59 106.91
  L 180.57 76.45
  A 0.79 0.79 0.0 0 0 179.72 75.66
  L 179.69 75.66
  A 0.99 0.98 89.0 0 0 178.79 76.60
  Q 178.65 79.73 178.04 82.75
  C 176.45 90.77 168.83 90.01 162.63 89.96
  A 0.89 0.88 0.3 0 1 161.75 89.08
  L 161.75 55.97
  A 0.77 0.77 0.0 0 1 162.52 55.20
  Q 167.28 55.23 172.19 55.37
  C 181.55 55.62 188.02 55.88 191.90 65.34
  Q 193.32 68.78 194.23 72.40
  A 3.15 3.14 11.5 0 0 195.39 74.15
  L 195.72 74.40"
/>
<path stroke="#b48c8a" vector-effect="non-scaling-stroke" d="
  M 261.53 90.18
  A 0.24 0.23 -46.9 0 1 261.52 89.72
  C 270.93 87.68 281.56 83.83 282.69 72.53
  C 283.73 62.11 275.66 54.77 265.80 53.65
  Q 259.68 52.96 251.00 52.95
  Q 246.41 52.95 224.09 52.98
  A 1.31 1.30 -82.5 0 0 222.83 53.95
  L 222.81 54.01
  A 0.87 0.87 0.0 0 0 223.64 55.10
  L 232.12 55.21
  A 0.97 0.97 0.0 0 1 233.08 56.18
  L 233.08 127.07
  A 0.87 0.87 0.0 0 1 232.21 127.94
  L 224.14 127.94
  A 0.78 0.78 0.0 0 0 223.36 128.72
  L 223.36 129.57
  A 0.73 0.72 -90.0 0 0 224.08 130.30
  L 254.10 130.30
  A 0.79 0.79 0.0 0 0 254.89 129.51
  L 254.89 128.70
  A 0.73 0.73 0.0 0 0 254.16 127.97
  L 246.15 127.97
  A 0.77 0.77 0.0 0 1 245.38 127.20
  L 245.38 91.20
  A 0.74 0.74 0.0 0 1 246.14 90.46
  C 252.84 90.59 260.83 89.71 264.84 96.65
  Q 267.37 101.03 269.79 107.23
  C 272.43 113.95 277.23 121.18 281.48 127.77
  C 298.39 153.94 324.10 179.40 355.31 186.90
  Q 362.60 188.65 370.58 187.68
  A 1.93 1.93 0.0 0 0 372.25 186.10
  L 372.26 186.04
  A 1.21 1.21 0.0 0 0 371.10 184.62
  Q 359.08 184.41 347.72 179.24
  C 318.14 165.77 299.33 136.70 285.38 108.80
  Q 281.91 101.84 279.82 99.45
  Q 273.06 91.72 261.53 90.18"
/>
<path stroke="#b48c8a" vector-effect="non-scaling-stroke" d="
  M 351.17 89.63
  C 360.28 86.83 369.29 82.02 368.74 70.73
  C 368.30 61.74 360.94 56.11 352.66 54.39
  Q 346.27 53.07 335.74 52.99
  Q 322.99 52.90 311.78 53.02
  A 1.24 1.23 -85.2 0 0 310.58 54.04
  L 310.53 54.35
  A 0.72 0.72 0.0 0 0 311.24 55.19
  L 319.70 55.19
  A 1.12 1.11 -0.0 0 1 320.82 56.30
  L 320.82 127.11
  A 0.86 0.86 0.0 0 1 319.96 127.97
  L 311.89 127.97
  A 0.70 0.70 0.0 0 0 311.19 128.67
  L 311.19 129.55
  A 0.72 0.72 0.0 0 0 311.90 130.27
  Q 330.74 130.50 347.26 130.11
  C 360.94 129.78 373.46 122.03 371.68 106.72
  C 370.48 96.37 360.81 91.13 351.23 90.16
  A 0.27 0.27 0.0 0 1 351.17 89.63"
/>
<path stroke="#82a1a2" vector-effect="non-scaling-stroke" d="
  M 65.15 158.83
  C 69.14 155.94 66.78 149.68 61.72 149.66
  Q 50.97 149.63 49.28 149.49
  A 0.50 0.50 0.0 0 0 48.74 149.99
  L 48.74 170.32
  A 0.71 0.71 0.0 0 0 49.45 171.03
  Q 57.79 171.06 62.25 170.83
  Q 66.77 170.59 67.74 166.55
  C 68.20 164.59 67.95 162.09 66.34 160.81
  Q 65.07 159.79 65.02 159.74
  A 0.63 0.63 0.0 0 1 65.15 158.83"
/>
<path stroke="#82a1a2" vector-effect="non-scaling-stroke" d="
  M 93.07 164.78
  Q 96.62 164.78 97.37 164.79
  A 0.98 0.97 75.2 0 1 98.20 165.28
  L 101.13 170.31
  A 2.00 1.99 76.3 0 0 102.78 171.32
  L 103.04 171.32
  A 1.02 1.02 0.0 0 0 104.00 169.89
  Q 100.10 161.12 95.94 151.82
  Q 94.86 149.40 93.07 149.40
  Q 91.28 149.40 90.20 151.82
  Q 86.05 161.12 82.15 169.90
  A 1.02 1.02 0.0 0 0 83.11 171.33
  L 83.37 171.32
  A 2.00 1.99 -76.3 0 0 85.02 170.31
  L 87.94 165.28
  A 0.98 0.97 -75.2 0 1 88.78 164.79
  Q 89.53 164.78 93.07 164.78"
/>
<path stroke="#82a1a2" vector-effect="non-scaling-stroke" d="
  M 184.58 164.81
  Q 188.13 164.81 188.87 164.82
  A 0.98 0.97 75.2 0 1 189.71 165.31
  L 192.64 170.33
  A 2.00 1.99 76.3 0 0 194.29 171.34
  L 194.54 171.35
  A 1.02 1.02 0.0 0 0 195.50 169.92
  Q 191.60 161.15 187.45 151.85
  Q 186.36 149.43 184.58 149.43
  Q 182.79 149.43 181.71 151.86
  Q 177.56 161.15 173.66 169.93
  A 1.02 1.02 0.0 0 0 174.62 171.35
  L 174.88 171.35
  A 2.00 1.99 -76.3 0 0 176.53 170.34
  L 179.45 165.31
  A 0.98 0.97 -75.2 0 1 180.29 164.82
  Q 181.04 164.81 184.58 164.81"
/>
<path stroke="#82a1a2" vector-effect="non-scaling-stroke" d="
  M 219.68 161.32
  Q 225.83 169.17 226.94 170.24
  Q 228.38 171.63 230.47 171.19
  A 0.88 0.86 -6.2 0 0 231.16 170.35
  L 231.17 150.49
  A 1.09 1.08 0.0 0 0 230.07 149.40
  L 229.16 149.40
  A 1.09 1.08 0.0 0 0 228.07 150.49
  L 228.06 166.13
  A 0.24 0.24 0.0 0 1 227.64 166.29
  Q 225.67 164.08 222.00 159.39
  Q 215.84 151.53 214.73 150.46
  Q 213.29 149.08 211.21 149.52
  A 0.88 0.86 -6.2 0 0 210.51 150.36
  L 210.50 170.22
  A 1.09 1.08 0.0 0 0 211.60 171.31
  L 212.51 171.31
  A 1.09 1.08 0.0 0 0 213.60 170.22
  L 213.61 154.58
  A 0.24 0.24 0.0 0 1 214.03 154.42
  Q 216.00 156.63 219.68 161.32"
/>
<path stroke="#82a1a2" vector-effect="non-scaling-stroke" d="
  M 135.27 160.15
  Q 139.06 157.34 137.28 152.55
  C 136.68 150.95 134.99 149.87 133.52 149.79
  Q 127.78 149.51 119.33 149.68
  A 0.32 0.32 0.0 0 0 119.01 150.00
  L 119.03 170.11
  A 1.14 1.13 -0.1 0 0 120.17 171.24
  L 120.85 171.24
  A 1.17 1.16 -0.1 0 0 122.02 170.08
  L 122.01 162.27
  A 0.57 0.57 0.0 0 1 122.60 161.70
  L 131.86 162.09
  A 2.31 2.30 -3.0 0 1 134.05 164.05
  L 134.97 170.17
  A 1.45 1.45 0.0 0 0 136.35 171.40
  L 137.00 171.43
  A 0.92 0.91 86.6 0 0 137.94 170.37
  C 137.37 166.73 137.99 163.17 135.25 160.84
  A 0.44 0.44 0.0 0 1 135.27 160.15"
/>
<path stroke="#82a1a2" vector-effect="non-scaling-stroke" d="
  M 247.81 150.16
  L 247.91 170.50
  A 0.62 0.62 0.0 0 0 248.54 171.12
  L 258.71 171.07
  A 9.27 8.97 -0.3 0 0 267.93 162.05
  L 267.91 158.41
  A 9.27 8.97 -0.3 0 0 258.59 149.49
  L 248.42 149.54
  A 0.62 0.62 0.0 0 0 247.81 150.16"
/>
<path stroke="#82a1a2" vector-effect="non-scaling-stroke" d="
  M 441.28 155.37
  Q 440.27 151.22 435.67 150.09
  C 430.84 148.91 423.41 150.01 423.71 156.49
  C 423.85 159.49 426.18 161.05 428.78 161.50
  Q 433.61 162.34 436.76 163.12
  C 438.96 163.67 439.81 165.54 438.25 167.53
  C 435.59 170.92 427.34 170.21 426.21 165.58
  A 1.40 1.40 0.0 0 0 424.90 164.51
  L 424.24 164.48
  A 1.10 1.10 0.0 0 0 423.12 165.81
  C 424.55 172.29 432.17 173.19 437.42 171.38
  C 443.00 169.47 443.95 162.29 437.60 160.15
  Q 436.34 159.73 429.65 158.60
  C 425.08 157.83 426.44 153.21 430.28 152.51
  Q 433.35 151.94 436.57 153.32
  A 0.75 0.70 -1.7 0 1 436.93 153.64
  L 438.05 155.57
  A 1.42 1.42 0.0 0 0 439.23 156.29
  L 440.47 156.34
  A 0.79 0.79 0.0 0 0 441.28 155.37"
/>
<path stroke="#82a1a2" vector-effect="non-scaling-stroke" d="
  M 522.54 172.16
  C 528.18 172.16 532.23 169.66 532.15 163.48
  Q 532.01 152.95 532.14 151.09
  A 0.87 0.86 4.7 0 0 531.35 150.17
  L 530.24 150.07
  A 1.00 1.00 0.0 0 0 529.15 151.07
  Q 529.20 157.27 529.20 163.51
  C 529.21 167.82 526.48 169.61 522.54 169.61
  C 518.60 169.61 515.88 167.82 515.88 163.51
  Q 515.89 157.27 515.94 151.07
  A 1.00 1.00 0.0 0 0 514.85 150.07
  L 513.74 150.17
  A 0.87 0.86 -4.7 0 0 512.95 151.09
  Q 513.08 152.95 512.94 163.47
  C 512.86 169.66 516.90 172.16 522.54 172.16"
/>
<path stroke="#82a1a2" vector-effect="non-scaling-stroke" d="
  M 586.67 165.49
  Q 590.24 165.50 591.00 165.50
  A 0.98 0.98 0.0 0 1 591.84 166.00
  L 594.78 171.08
  A 2.02 2.01 76.4 0 0 596.44 172.10
  L 596.70 172.11
  A 1.03 1.03 0.0 0 0 597.67 170.67
  Q 593.76 161.81 589.59 152.42
  Q 588.51 149.98 586.70 149.97
  Q 584.90 149.97 583.81 152.41
  Q 579.59 161.78 575.64 170.62
  A 1.03 1.03 0.0 0 0 576.60 172.06
  L 576.86 172.05
  A 2.02 2.01 -76.2 0 0 578.53 171.04
  L 581.49 165.97
  A 0.98 0.98 0.0 0 1 582.34 165.48
  Q 583.09 165.48 586.67 165.49"
/>
<path stroke="#82a1a2" vector-effect="non-scaling-stroke" d="
  M 618.72 161.91
  Q 624.85 169.73 625.96 170.80
  Q 627.39 172.18 629.47 171.74
  A 0.88 0.86 -6.3 0 0 630.16 170.90
  L 630.16 151.11
  A 1.09 1.08 0.0 0 0 629.07 150.03
  L 628.16 150.03
  A 1.09 1.08 -0.0 0 0 627.07 151.11
  L 627.07 166.70
  A 0.24 0.24 0.0 0 1 626.65 166.86
  Q 624.69 164.66 621.03 159.98
  Q 614.89 152.16 613.78 151.10
  Q 612.35 149.71 610.27 150.15
  A 0.88 0.86 -6.3 0 0 609.58 150.99
  L 609.58 170.78
  A 1.09 1.08 -0.0 0 0 610.67 171.86
  L 611.58 171.86
  A 1.09 1.08 0.0 0 0 612.67 170.78
  L 612.67 155.19
  A 0.24 0.24 0.0 0 1 613.08 155.03
  Q 615.05 157.24 618.72 161.91"
/>
<path stroke="#82a1a2" vector-effect="non-scaling-stroke" d="
  M 651.28 171.89
  Q 652.76 171.89 652.76 169.72
  Q 652.81 154.29 652.84 153.47
  A 0.62 0.62 0.0 0 1 653.46 152.87
  L 659.96 152.87
  A 1.16 1.15 3.7 0 0 661.11 151.87
  L 661.14 151.59
  A 1.22 1.21 -86.7 0 0 659.95 150.25
  Q 655.74 150.20 651.31 150.18
  Q 646.88 150.19 642.67 150.22
  A 1.22 1.21 86.9 0 0 641.47 151.56
  L 641.50 151.84
  A 1.16 1.15 -3.5 0 0 642.65 152.84
  L 649.15 152.86
  A 0.62 0.62 0.0 0 1 649.77 153.46
  Q 649.79 154.28 649.79 169.72
  Q 649.79 171.88 651.28 171.89"
/>
<path stroke="#82a1a2" vector-effect="non-scaling-stroke" d="
  M 379.43 160.68
  Q 383.23 157.85 381.42 153.05
  C 380.81 151.44 379.12 150.37 377.64 150.30
  Q 371.88 150.03 363.39 150.23
  A 0.32 0.32 0.0 0 0 363.08 150.55
  L 363.17 170.74
  A 1.14 1.13 -0.3 0 0 364.31 171.86
  L 365.00 171.86
  A 1.17 1.16 -0.3 0 0 366.17 170.70
  L 366.13 162.86
  A 0.57 0.57 0.0 0 1 366.72 162.29
  L 376.01 162.65
  A 2.32 2.31 -3.2 0 1 378.22 164.61
  L 379.17 170.74
  A 1.46 1.46 0.0 0 0 380.55 171.97
  L 381.21 172.00
  A 0.92 0.92 0.0 0 0 382.15 170.93
  C 381.56 167.28 382.18 163.71 379.42 161.37
  A 0.44 0.44 0.0 0 1 379.43 160.68"
/>
<path stroke="#82a1a2" vector-effect="non-scaling-stroke" d="
  M 398.43 168.90
  A 0.59 0.59 0.0 0 1 397.84 168.31
  L 397.84 162.39
  A 0.59 0.59 0.0 0 1 398.43 161.80
  L 411.00 161.80
  A 0.59 0.59 0.0 0 0 411.59 161.21
  L 411.59 159.82
  A 0.59 0.59 0.0 0 0 411.00 159.23
  L 398.32 159.23
  A 0.59 0.59 0.0 0 1 397.73 158.64
  L 397.73 153.47
  A 0.59 0.59 0.0 0 1 398.32 152.88
  L 411.39 152.88
  A 0.59 0.59 0.0 0 0 411.98 152.29
  L 411.98 150.84
  A 0.59 0.59 0.0 0 0 411.39 150.25
  L 395.26 150.25
  A 0.59 0.59 0.0 0 0 394.67 150.84
  L 394.67 171.11
  A 0.59 0.59 0.0 0 0 395.26 171.70
  L 411.49 171.70
  A 0.59 0.59 0.0 0 0 412.08 171.11
  L 412.08 169.49
  A 0.59 0.59 0.0 0 0 411.49 168.90
  L 398.43 168.90"
/>
<path stroke="#82a1a2" vector-effect="non-scaling-stroke" d="
  M 461.27 171.91
  Q 462.75 171.91 462.75 169.74
  Q 462.72 154.31 462.74 153.49
  A 0.62 0.62 0.0 0 1 463.36 152.89
  L 469.86 152.86
  A 1.16 1.15 3.4 0 0 471.00 151.85
  L 471.03 151.57
  A 1.22 1.21 -87.0 0 0 469.83 150.24
  Q 465.62 150.21 461.20 150.21
  Q 456.77 150.24 452.56 150.29
  A 1.22 1.21 86.6 0 0 451.37 151.64
  L 451.40 151.92
  A 1.16 1.15 -3.8 0 0 452.55 152.92
  L 459.05 152.91
  A 0.62 0.62 0.0 0 1 459.67 153.50
  Q 459.70 154.32 459.77 169.75
  Q 459.78 171.92 461.27 171.91"
/>
<path stroke="#82a1a2" vector-effect="non-scaling-stroke" d="
  M 490.22 165.46
  Q 493.79 165.46 494.54 165.47
  A 0.98 0.98 0.0 0 1 495.38 165.96
  L 498.31 171.02
  A 2.01 2.00 76.4 0 0 499.97 172.04
  L 500.23 172.05
  A 1.03 1.02 79.0 0 0 501.19 170.61
  Q 497.29 161.78 493.12 152.44
  Q 492.04 150.00 490.24 150.00
  Q 488.44 149.99 487.35 152.43
  Q 483.17 161.77 479.24 170.58
  A 1.03 1.02 -78.9 0 0 480.20 172.02
  L 480.46 172.01
  A 2.01 2.00 -76.2 0 0 482.12 171.00
  L 485.07 165.95
  A 0.98 0.98 0.0 0 1 485.91 165.46
  Q 486.66 165.45 490.22 165.46"
/>
<path stroke="#82a1a2" vector-effect="non-scaling-stroke" d="
  M 562.40 160.78
  Q 566.21 157.96 564.42 153.15
  C 563.82 151.54 562.13 150.46 560.65 150.38
  Q 554.89 150.09 546.40 150.25
  A 0.32 0.32 0.0 0 0 546.08 150.57
  L 546.08 170.77
  A 1.14 1.13 -0.0 0 0 547.22 171.90
  L 547.91 171.90
  A 1.17 1.16 0.0 0 0 549.08 170.74
  L 549.08 162.90
  A 0.57 0.57 0.0 0 1 549.67 162.33
  L 558.97 162.73
  A 2.32 2.31 -3.0 0 1 561.17 164.70
  L 562.09 170.84
  A 1.46 1.46 0.0 0 0 563.47 172.08
  L 564.13 172.11
  A 0.92 0.92 0.0 0 0 565.07 171.05
  C 564.50 167.39 565.13 163.82 562.38 161.47
  A 0.44 0.44 0.0 0 1 562.40 160.78"
/>
<path stroke="#b48c8a" vector-effect="non-scaling-stroke" d="
  M 484.04 102.25
  A 0.31 0.31 0.0 0 0 484.33 102.66
  L 503.91 102.69
  A 0.31 0.31 0.0 0 0 504.21 102.29
  L 494.47 73.23
  A 0.31 0.31 0.0 0 0 493.88 73.23
  L 484.04 102.25"
/>
<path stroke="#b48c8a" vector-effect="non-scaling-stroke" d="
  M 245.33 56.31
  L 245.27 86.99
  A 0.83 0.83 0.0 0 0 246.10 87.82
  L 255.14 87.84
  A 14.13 13.57 0.1 0 0 269.30 74.29
  L 269.30 69.09
  A 14.13 13.57 0.1 0 0 255.20 55.50
  L 246.16 55.48
  A 0.83 0.83 0.0 0 0 245.33 56.31"
/>
<path stroke="#b48c8a" vector-effect="non-scaling-stroke" d="
  M 332.35 55.80
  L 332.47 88.42
  A 0.45 0.45 0.0 0 0 332.92 88.87
  L 341.79 88.84
  A 14.34 14.17 -0.2 0 0 356.08 74.62
  L 356.06 69.44
  A 14.34 14.17 -0.2 0 0 341.67 55.32
  L 332.80 55.35
  A 0.45 0.45 0.0 0 0 332.35 55.80"
/>
<path stroke="#b48c8a" vector-effect="non-scaling-stroke" d="
  M 332.41 91.67
  L 332.41 127.69
  A 0.32 0.32 0.0 0 0 332.73 128.01
  L 343.44 128.01
  A 14.49 14.43 90.0 0 0 357.87 113.52
  L 357.87 105.84
  A 14.49 14.43 -90.0 0 0 343.44 91.35
  L 332.73 91.35
  A 0.32 0.32 0.0 0 0 332.41 91.67"
/>
<path stroke="#82a1a2" vector-effect="non-scaling-stroke" d="
  M 51.66 152.71
  L 51.64 158.19
  A 0.43 0.43 0.0 0 0 52.06 158.62
  L 60.38 158.66
  A 3.75 3.12 0.3 0 0 64.15 155.56
  L 64.15 155.46
  A 3.75 3.12 0.3 0 0 60.42 152.32
  L 52.10 152.28
  A 0.43 0.43 0.0 0 0 51.66 152.71"
/>
<path stroke="#82a1a2" vector-effect="non-scaling-stroke" d="
  M 51.57 161.70
  L 51.61 168.10
  A 0.43 0.43 0.0 0 0 52.04 168.52
  L 61.05 168.48
  A 4.00 3.26 -0.3 0 0 65.03 165.19
  L 65.03 164.45
  A 4.00 3.26 -0.3 0 0 61.01 161.22
  L 52.00 161.26
  A 0.43 0.43 0.0 0 0 51.57 161.70"
/>
<path stroke="#82a1a2" vector-effect="non-scaling-stroke" d="
  M 89.03 161.70
  A 0.31 0.31 0.0 0 0 89.31 162.13
  L 96.58 162.18
  A 0.31 0.31 0.0 0 0 96.87 161.75
  L 93.30 153.12
  A 0.31 0.31 0.0 0 0 92.72 153.12
  L 89.03 161.70"
/>
<path stroke="#82a1a2" vector-effect="non-scaling-stroke" d="
  M 180.86 161.28
  A 0.64 0.64 0.0 0 0 181.45 162.16
  L 187.61 162.14
  A 0.64 0.64 0.0 0 0 188.20 161.26
  L 185.09 153.80
  A 0.64 0.64 0.0 0 0 183.91 153.80
  L 180.86 161.28"
/>
<path stroke="#82a1a2" vector-effect="non-scaling-stroke" d="
  M 122.06 152.51
  L 122.04 159.13
  A 0.22 0.22 0.0 0 0 122.26 159.35
  L 131.01 159.36
  A 3.81 2.84 0.1 0 0 134.83 156.53
  L 134.83 155.15
  A 3.81 2.84 0.1 0 0 131.03 152.30
  L 122.28 152.29
  A 0.22 0.22 0.0 0 0 122.06 152.51"
/>
<path stroke="#82a1a2" vector-effect="non-scaling-stroke" d="
  M 251.05 152.78
  L 250.91 167.98
  A 0.49 0.49 0.0 0 0 251.40 168.47
  L 258.38 168.53
  A 6.63 6.62 0.5 0 0 265.07 161.97
  L 265.09 159.03
  A 6.63 6.62 0.5 0 0 258.52 152.35
  L 251.54 152.29
  A 0.49 0.49 0.0 0 0 251.05 152.78"
/>
<path stroke="#82a1a2" vector-effect="non-scaling-stroke" d="
  M 582.69 162.20
  A 0.33 0.33 0.0 0 0 582.99 162.66
  L 590.16 162.65
  A 0.33 0.33 0.0 0 0 590.46 162.19
  L 586.86 153.62
  A 0.33 0.33 0.0 0 0 586.26 153.62
  L 582.69 162.20"
/>
<path stroke="#82a1a2" vector-effect="non-scaling-stroke" d="
  M 366.27 153.43
  L 366.24 159.17
  A 0.58 0.58 0.0 0 0 366.81 159.75
  L 375.84 159.80
  A 3.30 3.25 -89.7 0 0 379.11 156.51
  L 379.11 156.21
  A 3.30 3.25 -89.7 0 0 375.88 152.90
  L 366.85 152.85
  A 0.58 0.58 0.0 0 0 366.27 153.43"
/>
<path stroke="#82a1a2" vector-effect="non-scaling-stroke" d="
  M 486.39 162.15
  A 0.41 0.41 0.0 0 0 486.78 162.71
  L 493.56 162.58
  A 0.41 0.41 0.0 0 0 493.93 162.00
  L 490.38 153.94
  A 0.41 0.41 0.0 0 0 489.63 153.95
  L 486.39 162.15"
/>
<path stroke="#82a1a2" vector-effect="non-scaling-stroke" d="
  M 548.96 153.05
  L 548.90 159.53
  A 0.26 0.26 0.0 0 0 549.16 159.80
  L 558.48 159.88
  A 3.50 3.41 0.5 0 0 562.01 156.50
  L 562.01 156.32
  A 3.50 3.41 0.5 0 0 558.54 152.88
  L 549.22 152.80
  A 0.26 0.26 0.0 0 0 548.96 153.05"
/>
</g>
<path fill="#f4f7ee" d="
  M 783.00 0.00
  L 783.00 232.00
  L 0.00 232.00
  L 0.00 0.00
  L 783.00 0.00
  Z
  M 664.61 102.65
  C 659.75 96.97 655.54 89.43 649.79 79.98
  C 638.03 60.66 620.30 41.04 600.57 27.93
  Q 585.74 18.08 568.87 24.39
  C 561.94 26.98 556.85 36.05 562.29 42.42
  C 564.90 45.47 570.29 46.46 573.33 43.37
  C 576.64 40.01 576.04 35.00 572.27 32.16
  C 571.33 31.45 569.38 31.13 568.25 30.70
  A 0.46 0.45 33.8 0 1 568.10 29.95
  C 581.56 17.10 605.33 40.89 614.30 50.77
  Q 615.98 52.63 615.98 54.50
  Q 615.96 65.29 616.12 126.96
  A 1.04 1.03 -88.7 0 1 615.04 128.00
  L 608.43 127.72
  A 0.98 0.98 0.0 0 0 607.41 128.70
  L 607.41 129.14
  A 1.16 1.16 0.0 0 0 608.57 130.30
  L 629.46 130.30
  A 0.96 0.96 0.0 0 0 630.42 129.34
  L 630.42 128.91
  A 0.93 0.93 0.0 0 0 629.49 127.98
  L 622.72 127.98
  A 1.16 1.16 0.0 0 1 621.56 126.82
  L 621.56 61.11
  A 0.49 0.49 0.0 0 1 622.50 60.90
  Q 623.62 63.26 624.76 64.99
  Q 636.21 82.43 649.08 102.93
  C 665.65 129.34 690.60 154.94 720.66 165.08
  Q 729.80 168.16 739.50 167.74
  A 2.09 2.08 -84.5 0 0 741.45 166.12
  L 741.47 166.02
  A 1.48 1.47 10.0 0 0 740.21 164.23
  C 711.77 160.77 687.12 139.21 672.19 115.76
  C 671.32 114.39 670.58 113.91 670.58 112.02
  Q 670.70 68.57 670.58 56.03
  A 0.75 0.75 0.0 0 1 671.33 55.27
  L 678.43 55.27
  A 0.82 0.82 0.0 0 0 679.25 54.45
  L 679.25 53.78
  A 0.82 0.81 -0.0 0 0 678.43 52.97
  L 657.24 52.97
  A 1.05 1.04 1.1 0 0 656.19 53.97
  L 656.17 54.38
  A 0.82 0.82 0.0 0 0 656.99 55.23
  L 664.43 55.23
  A 0.60 0.60 0.0 0 1 665.03 55.83
  L 665.03 102.50
  A 0.24 0.24 0.0 0 1 664.61 102.65
  Z
  M 443.97 72.09
  A 0.87 0.87 0.0 0 0 444.82 71.20
  L 444.37 52.36
  A 0.67 0.66 -1.7 0 0 443.67 51.71
  Q 441.93 51.80 439.80 55.07
  A 1.74 1.74 0.0 0 1 437.73 55.76
  C 436.71 55.38 435.17 54.15 433.87 53.64
  Q 420.45 48.45 410.95 56.65
  C 405.14 61.67 402.43 69.83 403.19 77.28
  Q 404.44 89.46 416.18 93.39
  Q 419.04 94.35 430.71 97.55
  Q 440.54 100.24 442.09 108.42
  C 444.45 120.92 435.06 130.20 422.30 128.00
  Q 411.04 126.05 406.21 114.02
  Q 405.66 112.67 404.53 107.37
  A 1.44 1.43 83.2 0 0 403.09 106.23
  L 402.49 106.25
  A 1.27 1.27 0.0 0 0 401.25 107.55
  L 401.76 129.03
  A 1.59 1.58 62.9 0 0 404.61 129.95
  L 408.08 125.36
  A 0.80 0.80 0.0 0 1 409.25 125.25
  Q 418.39 133.46 430.74 131.00
  C 440.65 129.03 446.72 120.56 448.20 110.94
  C 450.48 96.14 444.90 86.24 430.56 82.71
  Q 422.32 80.68 416.99 78.77
  Q 408.23 75.63 409.55 66.28
  C 410.77 57.64 419.75 53.18 427.73 55.01
  Q 436.24 56.96 440.03 65.00
  Q 440.52 66.04 441.68 70.96
  A 1.50 1.49 82.6 0 0 443.17 72.11
  L 443.97 72.09
  Z
  M 484.72 128.48
  A 0.54 0.54 0.0 0 0 484.18 127.94
  L 476.07 127.94
  A 0.54 0.54 0.0 0 1 475.56 127.22
  L 482.53 106.89
  A 0.54 0.54 0.0 0 1 483.05 106.53
  L 505.24 106.53
  A 0.54 0.54 0.0 0 1 505.75 106.90
  L 512.50 127.27
  A 0.54 0.54 0.0 0 1 511.99 127.98
  L 503.23 127.98
  A 0.54 0.54 0.0 0 0 502.69 128.52
  L 502.69 129.79
  A 0.54 0.54 0.0 0 0 503.23 130.33
  L 533.65 130.33
  A 0.54 0.54 0.0 0 0 534.19 129.79
  L 534.19 128.46
  A 0.54 0.54 0.0 0 0 533.65 127.92
  L 526.47 127.92
  A 0.54 0.54 0.0 0 1 525.96 127.55
  L 501.26 53.01
  A 0.54 0.54 0.0 0 0 500.75 52.64
  L 487.95 52.64
  A 0.54 0.54 0.0 0 0 487.41 53.18
  L 487.41 54.48
  A 0.54 0.54 0.0 0 0 487.95 55.02
  L 495.56 55.02
  A 0.54 0.54 0.0 0 1 496.07 55.74
  L 471.42 127.48
  A 0.54 0.54 0.0 0 1 470.90 127.84
  L 464.79 127.84
  A 0.54 0.54 0.0 0 0 464.25 128.38
  L 464.25 129.75
  A 0.54 0.54 0.0 0 0 464.79 130.29
  L 484.18 130.29
  A 0.54 0.54 0.0 0 0 484.72 129.75
  L 484.72 128.48
  Z
  M 78.30 92.14
  Q 91.58 92.14 93.05 92.26
  A 0.43 0.43 0.0 0 1 93.45 92.69
  L 93.45 127.00
  A 0.98 0.98 0.0 0 1 92.47 127.98
  L 84.31 127.98
  A 0.83 0.83 0.0 0 0 83.48 128.81
  L 83.48 129.40
  A 0.90 0.89 -0.0 0 0 84.38 130.29
  L 114.47 130.29
  A 0.94 0.93 0.0 0 0 115.41 129.36
  L 115.41 128.82
  A 0.90 0.90 0.0 0 0 114.51 127.92
  L 106.82 127.92
  A 0.74 0.74 0.0 0 1 106.08 127.18
  L 106.08 56.32
  A 1.11 1.11 0.0 0 1 107.19 55.21
  L 114.42 55.21
  A 0.89 0.89 0.0 0 0 115.31 54.32
  L 115.31 53.87
  A 0.92 0.92 0.0 0 0 114.39 52.95
  L 84.52 52.95
  A 0.87 0.86 0.0 0 0 83.65 53.81
  L 83.65 54.20
  A 1.00 1.00 0.0 0 0 84.65 55.20
  L 92.49 55.20
  A 0.93 0.92 0.0 0 1 93.42 56.12
  L 93.42 88.59
  A 0.57 0.56 -1.5 0 1 92.88 89.15
  Q 91.21 89.22 78.30 89.22
  Q 65.40 89.22 63.72 89.15
  A 0.57 0.56 1.4 0 1 63.18 88.60
  L 63.17 56.13
  A 0.93 0.92 -0.0 0 1 64.10 55.21
  L 71.94 55.20
  A 1.00 1.00 0.0 0 0 72.94 54.20
  L 72.94 53.81
  A 0.87 0.86 -0.0 0 0 72.07 52.95
  L 42.20 52.97
  A 0.92 0.92 0.0 0 0 41.28 53.89
  L 41.28 54.34
  A 0.89 0.89 0.0 0 0 42.17 55.23
  L 49.40 55.23
  A 1.11 1.11 0.0 0 1 50.51 56.33
  L 50.54 127.19
  A 0.74 0.74 0.0 0 1 49.81 127.94
  L 42.12 127.94
  A 0.90 0.90 0.0 0 0 41.22 128.84
  L 41.22 129.38
  A 0.94 0.93 -0.0 0 0 42.16 130.31
  L 72.25 130.29
  A 0.90 0.89 -0.0 0 0 73.15 129.40
  L 73.15 128.81
  A 0.83 0.83 0.0 0 0 72.32 127.98
  L 64.16 127.99
  A 0.98 0.98 0.0 0 1 63.17 127.01
  L 63.16 92.70
  A 0.43 0.43 0.0 0 1 63.56 92.27
  Q 65.02 92.15 78.30 92.14
  Z
  M 567.66 52.93
  Q 560.47 52.93 553.00 52.97
  Q 552.09 52.98 551.75 53.83
  A 1.03 0.99 -78.4 0 0 552.64 55.24
  Q 556.66 55.31 560.30 55.20
  A 0.95 0.95 0.0 0 1 561.27 56.13
  Q 561.27 56.47 561.27 91.62
  Q 561.28 126.78 561.28 127.11
  A 0.95 0.95 0.0 0 1 560.31 128.05
  Q 556.67 127.94 552.65 128.01
  A 1.03 0.99 78.4 0 0 551.76 129.42
  Q 552.10 130.27 553.01 130.28
  Q 560.48 130.32 567.67 130.32
  Q 574.86 130.32 582.34 130.28
  Q 583.25 130.27 583.59 129.42
  A 1.03 0.99 -78.4 0 0 582.70 128.01
  Q 578.68 127.94 575.04 128.05
  A 0.95 0.95 0.0 0 1 574.07 127.11
  Q 574.07 126.78 574.06 91.62
  Q 574.06 56.47 574.06 56.13
  A 0.95 0.95 0.0 0 1 575.03 55.20
  Q 578.67 55.31 582.69 55.24
  A 1.03 0.99 78.4 0 0 583.57 53.83
  Q 583.23 52.98 582.33 52.97
  Q 574.85 52.93 567.66 52.93
  Z
  M 756.70 52.99
  L 695.53 52.99
  A 0.65 0.65 0.0 0 0 694.88 53.62
  L 693.92 76.08
  A 1.23 1.23 0.0 0 0 694.85 77.32
  L 694.89 77.33
  A 0.94 0.93 -78.2 0 0 696.02 76.59
  C 697.32 69.64 701.69 56.64 709.78 55.80
  Q 714.30 55.33 719.35 55.24
  A 0.68 0.68 0.0 0 1 720.04 55.92
  L 720.04 127.26
  A 0.83 0.83 0.0 0 1 719.17 128.09
  L 710.04 127.71
  A 0.79 0.79 0.0 0 0 709.21 128.46
  L 709.16 129.63
  A 0.68 0.67 1.2 0 0 709.84 130.33
  L 742.57 130.33
  A 0.69 0.69 0.0 0 0 743.26 129.64
  L 743.26 129.10
  A 0.99 0.99 0.0 0 0 742.31 128.11
  L 733.25 127.73
  A 0.49 0.49 0.0 0 1 732.78 127.24
  L 732.78 55.90
  A 0.66 0.66 0.0 0 1 733.44 55.24
  C 742.37 55.27 748.29 55.49 752.49 64.52
  Q 754.84 69.58 757.09 76.97
  A 0.86 0.86 0.0 0 0 758.76 76.91
  Q 758.94 76.12 758.83 74.25
  Q 758.34 66.09 757.30 53.54
  A 0.60 0.60 0.0 0 0 756.70 52.99
  Z
  M 195.72 74.40
  A 0.43 0.43 0.0 0 0 196.41 74.03
  L 195.36 53.80
  A 0.85 0.85 0.0 0 0 194.51 53.00
  L 141.67 53.00
  A 1.25 1.24 2.5 0 0 140.43 54.13
  L 140.41 54.41
  A 0.74 0.73 -87.2 0 0 141.14 55.22
  L 149.00 55.22
  A 0.90 0.90 0.0 0 1 149.90 56.12
  L 149.90 126.99
  A 0.99 0.99 0.0 0 1 148.91 127.98
  L 140.83 127.98
  A 0.80 0.79 -87.6 0 0 140.04 128.71
  L 140.00 129.11
  A 1.10 1.10 0.0 0 0 141.10 130.31
  L 196.63 130.31
  A 0.72 0.72 0.0 0 0 197.35 129.66
  L 199.38 107.32
  A 1.11 1.10 -76.9 0 0 198.69 106.20
  L 198.64 106.18
  A 0.79 0.78 -75.6 0 0 197.63 106.78
  Q 195.95 115.46 191.42 122.45
  Q 188.13 127.53 181.73 127.74
  Q 172.06 128.05 162.55 127.94
  A 0.78 0.78 0.0 0 1 161.78 127.16
  L 161.78 93.16
  A 0.71 0.70 -2.7 0 1 162.42 92.46
  Q 165.66 92.13 170.89 92.92
  Q 176.77 93.81 177.93 99.59
  Q 179.03 105.11 178.83 107.07
  A 0.57 0.57 0.0 0 0 179.42 107.70
  L 179.86 107.68
  A 0.77 0.77 0.0 0 0 180.59 106.91
  L 180.57 76.45
  A 0.79 0.79 0.0 0 0 179.72 75.66
  L 179.69 75.66
  A 0.99 0.98 89.0 0 0 178.79 76.60
  Q 178.65 79.73 178.04 82.75
  C 176.45 90.77 168.83 90.01 162.63 89.96
  A 0.89 0.88 0.3 0 1 161.75 89.08
  L 161.75 55.97
  A 0.77 0.77 0.0 0 1 162.52 55.20
  Q 167.28 55.23 172.19 55.37
  C 181.55 55.62 188.02 55.88 191.90 65.34
  Q 193.32 68.78 194.23 72.40
  A 3.15 3.14 11.5 0 0 195.39 74.15
  L 195.72 74.40
  Z
  M 261.53 90.18
  A 0.24 0.23 -46.9 0 1 261.52 89.72
  C 270.93 87.68 281.56 83.83 282.69 72.53
  C 283.73 62.11 275.66 54.77 265.80 53.65
  Q 259.68 52.96 251.00 52.95
  Q 246.41 52.95 224.09 52.98
  A 1.31 1.30 -82.5 0 0 222.83 53.95
  L 222.81 54.01
  A 0.87 0.87 0.0 0 0 223.64 55.10
  L 232.12 55.21
  A 0.97 0.97 0.0 0 1 233.08 56.18
  L 233.08 127.07
  A 0.87 0.87 0.0 0 1 232.21 127.94
  L 224.14 127.94
  A 0.78 0.78 0.0 0 0 223.36 128.72
  L 223.36 129.57
  A 0.73 0.72 -90.0 0 0 224.08 130.30
  L 254.10 130.30
  A 0.79 0.79 0.0 0 0 254.89 129.51
  L 254.89 128.70
  A 0.73 0.73 0.0 0 0 254.16 127.97
  L 246.15 127.97
  A 0.77 0.77 0.0 0 1 245.38 127.20
  L 245.38 91.20
  A 0.74 0.74 0.0 0 1 246.14 90.46
  C 252.84 90.59 260.83 89.71 264.84 96.65
  Q 267.37 101.03 269.79 107.23
  C 272.43 113.95 277.23 121.18 281.48 127.77
  C 298.39 153.94 324.10 179.40 355.31 186.90
  Q 362.60 188.65 370.58 187.68
  A 1.93 1.93 0.0 0 0 372.25 186.10
  L 372.26 186.04
  A 1.21 1.21 0.0 0 0 371.10 184.62
  Q 359.08 184.41 347.72 179.24
  C 318.14 165.77 299.33 136.70 285.38 108.80
  Q 281.91 101.84 279.82 99.45
  Q 273.06 91.72 261.53 90.18
  Z
  M 351.17 89.63
  C 360.28 86.83 369.29 82.02 368.74 70.73
  C 368.30 61.74 360.94 56.11 352.66 54.39
  Q 346.27 53.07 335.74 52.99
  Q 322.99 52.90 311.78 53.02
  A 1.24 1.23 -85.2 0 0 310.58 54.04
  L 310.53 54.35
  A 0.72 0.72 0.0 0 0 311.24 55.19
  L 319.70 55.19
  A 1.12 1.11 -0.0 0 1 320.82 56.30
  L 320.82 127.11
  A 0.86 0.86 0.0 0 1 319.96 127.97
  L 311.89 127.97
  A 0.70 0.70 0.0 0 0 311.19 128.67
  L 311.19 129.55
  A 0.72 0.72 0.0 0 0 311.90 130.27
  Q 330.74 130.50 347.26 130.11
  C 360.94 129.78 373.46 122.03 371.68 106.72
  C 370.48 96.37 360.81 91.13 351.23 90.16
  A 0.27 0.27 0.0 0 1 351.17 89.63
  Z
  M 65.15 158.83
  C 69.14 155.94 66.78 149.68 61.72 149.66
  Q 50.97 149.63 49.28 149.49
  A 0.50 0.50 0.0 0 0 48.74 149.99
  L 48.74 170.32
  A 0.71 0.71 0.0 0 0 49.45 171.03
  Q 57.79 171.06 62.25 170.83
  Q 66.77 170.59 67.74 166.55
  C 68.20 164.59 67.95 162.09 66.34 160.81
  Q 65.07 159.79 65.02 159.74
  A 0.63 0.63 0.0 0 1 65.15 158.83
  Z
  M 93.07 164.78
  Q 96.62 164.78 97.37 164.79
  A 0.98 0.97 75.2 0 1 98.20 165.28
  L 101.13 170.31
  A 2.00 1.99 76.3 0 0 102.78 171.32
  L 103.04 171.32
  A 1.02 1.02 0.0 0 0 104.00 169.89
  Q 100.10 161.12 95.94 151.82
  Q 94.86 149.40 93.07 149.40
  Q 91.28 149.40 90.20 151.82
  Q 86.05 161.12 82.15 169.90
  A 1.02 1.02 0.0 0 0 83.11 171.33
  L 83.37 171.32
  A 2.00 1.99 -76.3 0 0 85.02 170.31
  L 87.94 165.28
  A 0.98 0.97 -75.2 0 1 88.78 164.79
  Q 89.53 164.78 93.07 164.78
  Z
  M 184.58 164.81
  Q 188.13 164.81 188.87 164.82
  A 0.98 0.97 75.2 0 1 189.71 165.31
  L 192.64 170.33
  A 2.00 1.99 76.3 0 0 194.29 171.34
  L 194.54 171.35
  A 1.02 1.02 0.0 0 0 195.50 169.92
  Q 191.60 161.15 187.45 151.85
  Q 186.36 149.43 184.58 149.43
  Q 182.79 149.43 181.71 151.86
  Q 177.56 161.15 173.66 169.93
  A 1.02 1.02 0.0 0 0 174.62 171.35
  L 174.88 171.35
  A 2.00 1.99 -76.3 0 0 176.53 170.34
  L 179.45 165.31
  A 0.98 0.97 -75.2 0 1 180.29 164.82
  Q 181.04 164.81 184.58 164.81
  Z
  M 219.68 161.32
  Q 225.83 169.17 226.94 170.24
  Q 228.38 171.63 230.47 171.19
  A 0.88 0.86 -6.2 0 0 231.16 170.35
  L 231.17 150.49
  A 1.09 1.08 0.0 0 0 230.07 149.40
  L 229.16 149.40
  A 1.09 1.08 0.0 0 0 228.07 150.49
  L 228.06 166.13
  A 0.24 0.24 0.0 0 1 227.64 166.29
  Q 225.67 164.08 222.00 159.39
  Q 215.84 151.53 214.73 150.46
  Q 213.29 149.08 211.21 149.52
  A 0.88 0.86 -6.2 0 0 210.51 150.36
  L 210.50 170.22
  A 1.09 1.08 0.0 0 0 211.60 171.31
  L 212.51 171.31
  A 1.09 1.08 0.0 0 0 213.60 170.22
  L 213.61 154.58
  A 0.24 0.24 0.0 0 1 214.03 154.42
  Q 216.00 156.63 219.68 161.32
  Z
  M 135.27 160.15
  Q 139.06 157.34 137.28 152.55
  C 136.68 150.95 134.99 149.87 133.52 149.79
  Q 127.78 149.51 119.33 149.68
  A 0.32 0.32 0.0 0 0 119.01 150.00
  L 119.03 170.11
  A 1.14 1.13 -0.1 0 0 120.17 171.24
  L 120.85 171.24
  A 1.17 1.16 -0.1 0 0 122.02 170.08
  L 122.01 162.27
  A 0.57 0.57 0.0 0 1 122.60 161.70
  L 131.86 162.09
  A 2.31 2.30 -3.0 0 1 134.05 164.05
  L 134.97 170.17
  A 1.45 1.45 0.0 0 0 136.35 171.40
  L 137.00 171.43
  A 0.92 0.91 86.6 0 0 137.94 170.37
  C 137.37 166.73 137.99 163.17 135.25 160.84
  A 0.44 0.44 0.0 0 1 135.27 160.15
  Z
  M 247.81 150.16
  L 247.91 170.50
  A 0.62 0.62 0.0 0 0 248.54 171.12
  L 258.71 171.07
  A 9.27 8.97 -0.3 0 0 267.93 162.05
  L 267.91 158.41
  A 9.27 8.97 -0.3 0 0 258.59 149.49
  L 248.42 149.54
  A 0.62 0.62 0.0 0 0 247.81 150.16
  Z
  M 441.28 155.37
  Q 440.27 151.22 435.67 150.09
  C 430.84 148.91 423.41 150.01 423.71 156.49
  C 423.85 159.49 426.18 161.05 428.78 161.50
  Q 433.61 162.34 436.76 163.12
  C 438.96 163.67 439.81 165.54 438.25 167.53
  C 435.59 170.92 427.34 170.21 426.21 165.58
  A 1.40 1.40 0.0 0 0 424.90 164.51
  L 424.24 164.48
  A 1.10 1.10 0.0 0 0 423.12 165.81
  C 424.55 172.29 432.17 173.19 437.42 171.38
  C 443.00 169.47 443.95 162.29 437.60 160.15
  Q 436.34 159.73 429.65 158.60
  C 425.08 157.83 426.44 153.21 430.28 152.51
  Q 433.35 151.94 436.57 153.32
  A 0.75 0.70 -1.7 0 1 436.93 153.64
  L 438.05 155.57
  A 1.42 1.42 0.0 0 0 439.23 156.29
  L 440.47 156.34
  A 0.79 0.79 0.0 0 0 441.28 155.37
  Z
  M 522.54 172.16
  C 528.18 172.16 532.23 169.66 532.15 163.48
  Q 532.01 152.95 532.14 151.09
  A 0.87 0.86 4.7 0 0 531.35 150.17
  L 530.24 150.07
  A 1.00 1.00 0.0 0 0 529.15 151.07
  Q 529.20 157.27 529.20 163.51
  C 529.21 167.82 526.48 169.61 522.54 169.61
  C 518.60 169.61 515.88 167.82 515.88 163.51
  Q 515.89 157.27 515.94 151.07
  A 1.00 1.00 0.0 0 0 514.85 150.07
  L 513.74 150.17
  A 0.87 0.86 -4.7 0 0 512.95 151.09
  Q 513.08 152.95 512.94 163.47
  C 512.86 169.66 516.90 172.16 522.54 172.16
  Z
  M 586.67 165.49
  Q 590.24 165.50 591.00 165.50
  A 0.98 0.98 0.0 0 1 591.84 166.00
  L 594.78 171.08
  A 2.02 2.01 76.4 0 0 596.44 172.10
  L 596.70 172.11
  A 1.03 1.03 0.0 0 0 597.67 170.67
  Q 593.76 161.81 589.59 152.42
  Q 588.51 149.98 586.70 149.97
  Q 584.90 149.97 583.81 152.41
  Q 579.59 161.78 575.64 170.62
  A 1.03 1.03 0.0 0 0 576.60 172.06
  L 576.86 172.05
  A 2.02 2.01 -76.2 0 0 578.53 171.04
  L 581.49 165.97
  A 0.98 0.98 0.0 0 1 582.34 165.48
  Q 583.09 165.48 586.67 165.49
  Z
  M 618.72 161.91
  Q 624.85 169.73 625.96 170.80
  Q 627.39 172.18 629.47 171.74
  A 0.88 0.86 -6.3 0 0 630.16 170.90
  L 630.16 151.11
  A 1.09 1.08 0.0 0 0 629.07 150.03
  L 628.16 150.03
  A 1.09 1.08 -0.0 0 0 627.07 151.11
  L 627.07 166.70
  A 0.24 0.24 0.0 0 1 626.65 166.86
  Q 624.69 164.66 621.03 159.98
  Q 614.89 152.16 613.78 151.10
  Q 612.35 149.71 610.27 150.15
  A 0.88 0.86 -6.3 0 0 609.58 150.99
  L 609.58 170.78
  A 1.09 1.08 -0.0 0 0 610.67 171.86
  L 611.58 171.86
  A 1.09 1.08 0.0 0 0 612.67 170.78
  L 612.67 155.19
  A 0.24 0.24 0.0 0 1 613.08 155.03
  Q 615.05 157.24 618.72 161.91
  Z
  M 651.28 171.89
  Q 652.76 171.89 652.76 169.72
  Q 652.81 154.29 652.84 153.47
  A 0.62 0.62 0.0 0 1 653.46 152.87
  L 659.96 152.87
  A 1.16 1.15 3.7 0 0 661.11 151.87
  L 661.14 151.59
  A 1.22 1.21 -86.7 0 0 659.95 150.25
  Q 655.74 150.20 651.31 150.18
  Q 646.88 150.19 642.67 150.22
  A 1.22 1.21 86.9 0 0 641.47 151.56
  L 641.50 151.84
  A 1.16 1.15 -3.5 0 0 642.65 152.84
  L 649.15 152.86
  A 0.62 0.62 0.0 0 1 649.77 153.46
  Q 649.79 154.28 649.79 169.72
  Q 649.79 171.88 651.28 171.89
  Z
  M 379.43 160.68
  Q 383.23 157.85 381.42 153.05
  C 380.81 151.44 379.12 150.37 377.64 150.30
  Q 371.88 150.03 363.39 150.23
  A 0.32 0.32 0.0 0 0 363.08 150.55
  L 363.17 170.74
  A 1.14 1.13 -0.3 0 0 364.31 171.86
  L 365.00 171.86
  A 1.17 1.16 -0.3 0 0 366.17 170.70
  L 366.13 162.86
  A 0.57 0.57 0.0 0 1 366.72 162.29
  L 376.01 162.65
  A 2.32 2.31 -3.2 0 1 378.22 164.61
  L 379.17 170.74
  A 1.46 1.46 0.0 0 0 380.55 171.97
  L 381.21 172.00
  A 0.92 0.92 0.0 0 0 382.15 170.93
  C 381.56 167.28 382.18 163.71 379.42 161.37
  A 0.44 0.44 0.0 0 1 379.43 160.68
  Z
  M 398.43 168.90
  A 0.59 0.59 0.0 0 1 397.84 168.31
  L 397.84 162.39
  A 0.59 0.59 0.0 0 1 398.43 161.80
  L 411.00 161.80
  A 0.59 0.59 0.0 0 0 411.59 161.21
  L 411.59 159.82
  A 0.59 0.59 0.0 0 0 411.00 159.23
  L 398.32 159.23
  A 0.59 0.59 0.0 0 1 397.73 158.64
  L 397.73 153.47
  A 0.59 0.59 0.0 0 1 398.32 152.88
  L 411.39 152.88
  A 0.59 0.59 0.0 0 0 411.98 152.29
  L 411.98 150.84
  A 0.59 0.59 0.0 0 0 411.39 150.25
  L 395.26 150.25
  A 0.59 0.59 0.0 0 0 394.67 150.84
  L 394.67 171.11
  A 0.59 0.59 0.0 0 0 395.26 171.70
  L 411.49 171.70
  A 0.59 0.59 0.0 0 0 412.08 171.11
  L 412.08 169.49
  A 0.59 0.59 0.0 0 0 411.49 168.90
  L 398.43 168.90
  Z
  M 461.27 171.91
  Q 462.75 171.91 462.75 169.74
  Q 462.72 154.31 462.74 153.49
  A 0.62 0.62 0.0 0 1 463.36 152.89
  L 469.86 152.86
  A 1.16 1.15 3.4 0 0 471.00 151.85
  L 471.03 151.57
  A 1.22 1.21 -87.0 0 0 469.83 150.24
  Q 465.62 150.21 461.20 150.21
  Q 456.77 150.24 452.56 150.29
  A 1.22 1.21 86.6 0 0 451.37 151.64
  L 451.40 151.92
  A 1.16 1.15 -3.8 0 0 452.55 152.92
  L 459.05 152.91
  A 0.62 0.62 0.0 0 1 459.67 153.50
  Q 459.70 154.32 459.77 169.75
  Q 459.78 171.92 461.27 171.91
  Z
  M 490.22 165.46
  Q 493.79 165.46 494.54 165.47
  A 0.98 0.98 0.0 0 1 495.38 165.96
  L 498.31 171.02
  A 2.01 2.00 76.4 0 0 499.97 172.04
  L 500.23 172.05
  A 1.03 1.02 79.0 0 0 501.19 170.61
  Q 497.29 161.78 493.12 152.44
  Q 492.04 150.00 490.24 150.00
  Q 488.44 149.99 487.35 152.43
  Q 483.17 161.77 479.24 170.58
  A 1.03 1.02 -78.9 0 0 480.20 172.02
  L 480.46 172.01
  A 2.01 2.00 -76.2 0 0 482.12 171.00
  L 485.07 165.95
  A 0.98 0.98 0.0 0 1 485.91 165.46
  Q 486.66 165.45 490.22 165.46
  Z
  M 562.40 160.78
  Q 566.21 157.96 564.42 153.15
  C 563.82 151.54 562.13 150.46 560.65 150.38
  Q 554.89 150.09 546.40 150.25
  A 0.32 0.32 0.0 0 0 546.08 150.57
  L 546.08 170.77
  A 1.14 1.13 -0.0 0 0 547.22 171.90
  L 547.91 171.90
  A 1.17 1.16 0.0 0 0 549.08 170.74
  L 549.08 162.90
  A 0.57 0.57 0.0 0 1 549.67 162.33
  L 558.97 162.73
  A 2.32 2.31 -3.0 0 1 561.17 164.70
  L 562.09 170.84
  A 1.46 1.46 0.0 0 0 563.47 172.08
  L 564.13 172.11
  A 0.92 0.92 0.0 0 0 565.07 171.05
  C 564.50 167.39 565.13 163.82 562.38 161.47
  A 0.44 0.44 0.0 0 1 562.40 160.78
  Z"
/>
<path fill="#742126" d="
  M 664.61 102.65
  A 0.24 0.24 0.0 0 0 665.03 102.50
  L 665.03 55.83
  A 0.60 0.60 0.0 0 0 664.43 55.23
  L 656.99 55.23
  A 0.82 0.82 0.0 0 1 656.17 54.38
  L 656.19 53.97
  A 1.05 1.04 1.1 0 1 657.24 52.97
  L 678.43 52.97
  A 0.82 0.81 0.0 0 1 679.25 53.78
  L 679.25 54.45
  A 0.82 0.82 0.0 0 1 678.43 55.27
  L 671.33 55.27
  A 0.75 0.75 0.0 0 0 670.58 56.03
  Q 670.70 68.57 670.58 112.02
  C 670.58 113.91 671.32 114.39 672.19 115.76
  C 687.12 139.21 711.77 160.77 740.21 164.23
  A 1.48 1.47 10.0 0 1 741.47 166.02
  L 741.45 166.12
  A 2.09 2.08 -84.5 0 1 739.50 167.74
  Q 729.80 168.16 720.66 165.08
  C 690.60 154.94 665.65 129.34 649.08 102.93
  Q 636.21 82.43 624.76 64.99
  Q 623.62 63.26 622.50 60.90
  A 0.49 0.49 0.0 0 0 621.56 61.11
  L 621.56 126.82
  A 1.16 1.16 0.0 0 0 622.72 127.98
  L 629.49 127.98
  A 0.93 0.93 0.0 0 1 630.42 128.91
  L 630.42 129.34
  A 0.96 0.96 0.0 0 1 629.46 130.30
  L 608.57 130.30
  A 1.16 1.16 0.0 0 1 607.41 129.14
  L 607.41 128.70
  A 0.98 0.98 0.0 0 1 608.43 127.72
  L 615.04 128.00
  A 1.04 1.03 -88.7 0 0 616.12 126.96
  Q 615.96 65.29 615.98 54.50
  Q 615.98 52.63 614.30 50.77
  C 605.33 40.89 581.56 17.10 568.10 29.95
  A 0.46 0.45 33.8 0 0 568.25 30.70
  C 569.38 31.13 571.33 31.45 572.27 32.16
  C 576.04 35.00 576.64 40.01 573.33 43.37
  C 570.29 46.46 564.90 45.47 562.29 42.42
  C 556.85 36.05 561.94 26.98 568.87 24.39
  Q 585.74 18.08 600.57 27.93
  C 620.30 41.04 638.03 60.66 649.79 79.98
  C 655.54 89.43 659.75 96.97 664.61 102.65
  Z"
/>
<path fill="#742126" d="
  M 443.97 72.09
  L 443.17 72.11
  A 1.50 1.49 82.6 0 1 441.68 70.96
  Q 440.52 66.04 440.03 65.00
  Q 436.24 56.96 427.73 55.01
  C 419.75 53.18 410.77 57.64 409.55 66.28
  Q 408.23 75.63 416.99 78.77
  Q 422.32 80.68 430.56 82.71
  C 444.90 86.24 450.48 96.14 448.20 110.94
  C 446.72 120.56 440.65 129.03 430.74 131.00
  Q 418.39 133.46 409.25 125.25
  A 0.80 0.80 0.0 0 0 408.08 125.36
  L 404.61 129.95
  A 1.59 1.58 62.9 0 1 401.76 129.03
  L 401.25 107.55
  A 1.27 1.27 0.0 0 1 402.49 106.25
  L 403.09 106.23
  A 1.44 1.43 83.2 0 1 404.53 107.37
  Q 405.66 112.67 406.21 114.02
  Q 411.04 126.05 422.30 128.00
  C 435.06 130.20 444.45 120.92 442.09 108.42
  Q 440.54 100.24 430.71 97.55
  Q 419.04 94.35 416.18 93.39
  Q 404.44 89.46 403.19 77.28
  C 402.43 69.83 405.14 61.67 410.95 56.65
  Q 420.45 48.45 433.87 53.64
  C 435.17 54.15 436.71 55.38 437.73 55.76
  A 1.74 1.74 0.0 0 0 439.80 55.07
  Q 441.93 51.80 443.67 51.71
  A 0.67 0.66 -1.7 0 1 444.37 52.36
  L 444.82 71.20
  A 0.87 0.87 0.0 0 1 443.97 72.09
  Z"
/>
<path fill="#742126" d="
  M 484.72 128.48
  L 484.72 129.75
  A 0.54 0.54 0.0 0 1 484.18 130.29
  L 464.79 130.29
  A 0.54 0.54 0.0 0 1 464.25 129.75
  L 464.25 128.38
  A 0.54 0.54 0.0 0 1 464.79 127.84
  L 470.90 127.84
  A 0.54 0.54 0.0 0 0 471.42 127.48
  L 496.07 55.74
  A 0.54 0.54 0.0 0 0 495.56 55.02
  L 487.95 55.02
  A 0.54 0.54 0.0 0 1 487.41 54.48
  L 487.41 53.18
  A 0.54 0.54 0.0 0 1 487.95 52.64
  L 500.75 52.64
  A 0.54 0.54 0.0 0 1 501.26 53.01
  L 525.96 127.55
  A 0.54 0.54 0.0 0 0 526.47 127.92
  L 533.65 127.92
  A 0.54 0.54 0.0 0 1 534.19 128.46
  L 534.19 129.79
  A 0.54 0.54 0.0 0 1 533.65 130.33
  L 503.23 130.33
  A 0.54 0.54 0.0 0 1 502.69 129.79
  L 502.69 128.52
  A 0.54 0.54 0.0 0 1 503.23 127.98
  L 511.99 127.98
  A 0.54 0.54 0.0 0 0 512.50 127.27
  L 505.75 106.90
  A 0.54 0.54 0.0 0 0 505.24 106.53
  L 483.05 106.53
  A 0.54 0.54 0.0 0 0 482.53 106.89
  L 475.56 127.22
  A 0.54 0.54 0.0 0 0 476.07 127.94
  L 484.18 127.94
  A 0.54 0.54 0.0 0 1 484.72 128.48
  Z
  M 484.04 102.25
  A 0.31 0.31 0.0 0 0 484.33 102.66
  L 503.91 102.69
  A 0.31 0.31 0.0 0 0 504.21 102.29
  L 494.47 73.23
  A 0.31 0.31 0.0 0 0 493.88 73.23
  L 484.04 102.25
  Z"
/>
<path fill="#742126" d="
  M 78.30 89.22
  Q 91.21 89.22 92.88 89.15
  A 0.57 0.56 -1.5 0 0 93.42 88.59
  L 93.42 56.12
  A 0.93 0.92 0.0 0 0 92.49 55.20
  L 84.65 55.20
  A 1.00 1.00 0.0 0 1 83.65 54.20
  L 83.65 53.81
  A 0.87 0.86 0.0 0 1 84.52 52.95
  L 114.39 52.95
  A 0.92 0.92 0.0 0 1 115.31 53.87
  L 115.31 54.32
  A 0.89 0.89 0.0 0 1 114.42 55.21
  L 107.19 55.21
  A 1.11 1.11 0.0 0 0 106.08 56.32
  L 106.08 127.18
  A 0.74 0.74 0.0 0 0 106.82 127.92
  L 114.51 127.92
  A 0.90 0.90 0.0 0 1 115.41 128.82
  L 115.41 129.36
  A 0.94 0.93 -0.0 0 1 114.47 130.29
  L 84.38 130.29
  A 0.90 0.89 0.0 0 1 83.48 129.40
  L 83.48 128.81
  A 0.83 0.83 0.0 0 1 84.31 127.98
  L 92.47 127.98
  A 0.98 0.98 0.0 0 0 93.45 127.00
  L 93.45 92.69
  A 0.43 0.43 0.0 0 0 93.05 92.26
  Q 91.58 92.14 78.30 92.14
  Q 65.02 92.15 63.56 92.27
  A 0.43 0.43 0.0 0 0 63.16 92.70
  L 63.17 127.01
  A 0.98 0.98 0.0 0 0 64.16 127.99
  L 72.32 127.98
  A 0.83 0.83 0.0 0 1 73.15 128.81
  L 73.15 129.40
  A 0.90 0.89 -0.0 0 1 72.25 130.29
  L 42.16 130.31
  A 0.94 0.93 -0.0 0 1 41.22 129.38
  L 41.22 128.84
  A 0.90 0.90 0.0 0 1 42.12 127.94
  L 49.81 127.94
  A 0.74 0.74 0.0 0 0 50.54 127.19
  L 50.51 56.33
  A 1.11 1.11 0.0 0 0 49.40 55.23
  L 42.17 55.23
  A 0.89 0.89 0.0 0 1 41.28 54.34
  L 41.28 53.89
  A 0.92 0.92 0.0 0 1 42.20 52.97
  L 72.07 52.95
  A 0.87 0.86 -0.0 0 1 72.94 53.81
  L 72.94 54.20
  A 1.00 1.00 0.0 0 1 71.94 55.20
  L 64.10 55.21
  A 0.93 0.92 -0.0 0 0 63.17 56.13
  L 63.18 88.60
  A 0.57 0.56 1.4 0 0 63.72 89.15
  Q 65.40 89.22 78.30 89.22
  Z"
/>
<path fill="#742126" d="
  M 574.06 91.62
  Q 574.07 126.78 574.07 127.11
  A 0.95 0.95 0.0 0 0 575.04 128.05
  Q 578.68 127.94 582.70 128.01
  A 1.03 0.99 -78.4 0 1 583.59 129.42
  Q 583.25 130.27 582.34 130.28
  Q 574.86 130.32 567.67 130.32
  Q 560.48 130.32 553.01 130.28
  Q 552.10 130.27 551.76 129.42
  A 1.03 0.99 78.4 0 1 552.65 128.01
  Q 556.67 127.94 560.31 128.05
  A 0.95 0.95 0.0 0 0 561.28 127.11
  Q 561.28 126.78 561.27 91.62
  Q 561.27 56.47 561.27 56.13
  A 0.95 0.95 0.0 0 0 560.30 55.20
  Q 556.66 55.31 552.64 55.24
  A 1.03 0.99 -78.4 0 1 551.75 53.83
  Q 552.09 52.98 553.00 52.97
  Q 560.47 52.93 567.66 52.93
  Q 574.85 52.93 582.33 52.97
  Q 583.23 52.98 583.57 53.83
  A 1.03 0.99 78.4 0 1 582.69 55.24
  Q 578.67 55.31 575.03 55.20
  A 0.95 0.95 0.0 0 0 574.06 56.13
  Q 574.06 56.47 574.06 91.62
  Z"
/>
<path fill="#742126" d="
  M 757.30 53.54
  Q 758.34 66.09 758.83 74.25
  Q 758.94 76.12 758.76 76.91
  A 0.86 0.86 0.0 0 1 757.09 76.97
  Q 754.84 69.58 752.49 64.52
  C 748.29 55.49 742.37 55.27 733.44 55.24
  A 0.66 0.66 0.0 0 0 732.78 55.90
  L 732.78 127.24
  A 0.49 0.49 0.0 0 0 733.25 127.73
  L 742.31 128.11
  A 0.99 0.99 0.0 0 1 743.26 129.10
  L 743.26 129.64
  A 0.69 0.69 0.0 0 1 742.57 130.33
  L 709.84 130.33
  A 0.68 0.67 1.2 0 1 709.16 129.63
  L 709.21 128.46
  A 0.79 0.79 0.0 0 1 710.04 127.71
  L 719.17 128.09
  A 0.83 0.83 0.0 0 0 720.04 127.26
  L 720.04 55.92
  A 0.68 0.68 0.0 0 0 719.35 55.24
  Q 714.30 55.33 709.78 55.80
  C 701.69 56.64 697.32 69.64 696.02 76.59
  A 0.94 0.93 -78.2 0 1 694.89 77.33
  L 694.85 77.32
  A 1.23 1.23 0.0 0 1 693.92 76.08
  L 694.88 53.62
  A 0.65 0.65 0.0 0 1 695.53 52.99
  L 756.70 52.99
  A 0.60 0.60 0.0 0 1 757.30 53.54
  Z"
/>
<path fill="#742126" d="
  M 195.72 74.40
  L 195.39 74.15
  A 3.15 3.14 11.5 0 1 194.23 72.40
  Q 193.32 68.78 191.90 65.34
  C 188.02 55.88 181.55 55.62 172.19 55.37
  Q 167.28 55.23 162.52 55.20
  A 0.77 0.77 0.0 0 0 161.75 55.97
  L 161.75 89.08
  A 0.89 0.88 0.3 0 0 162.63 89.96
  C 168.83 90.01 176.45 90.77 178.04 82.75
  Q 178.65 79.73 178.79 76.60
  A 0.99 0.98 89.0 0 1 179.69 75.66
  L 179.72 75.66
  A 0.79 0.79 0.0 0 1 180.57 76.45
  L 180.59 106.91
  A 0.77 0.77 0.0 0 1 179.86 107.68
  L 179.42 107.70
  A 0.57 0.57 0.0 0 1 178.83 107.07
  Q 179.03 105.11 177.93 99.59
  Q 176.77 93.81 170.89 92.92
  Q 165.66 92.13 162.42 92.46
  A 0.71 0.70 -2.7 0 0 161.78 93.16
  L 161.78 127.16
  A 0.78 0.78 0.0 0 0 162.55 127.94
  Q 172.06 128.05 181.73 127.74
  Q 188.13 127.53 191.42 122.45
  Q 195.95 115.46 197.63 106.78
  A 0.79 0.78 -75.6 0 1 198.64 106.18
  L 198.69 106.20
  A 1.11 1.10 -76.9 0 1 199.38 107.32
  L 197.35 129.66
  A 0.72 0.72 0.0 0 1 196.63 130.31
  L 141.10 130.31
  A 1.10 1.10 0.0 0 1 140.00 129.11
  L 140.04 128.71
  A 0.80 0.79 -87.6 0 1 140.83 127.98
  L 148.91 127.98
  A 0.99 0.99 0.0 0 0 149.90 126.99
  L 149.90 56.12
  A 0.90 0.90 0.0 0 0 149.00 55.22
  L 141.14 55.22
  A 0.74 0.73 -87.2 0 1 140.41 54.41
  L 140.43 54.13
  A 1.25 1.24 2.5 0 1 141.67 53.00
  L 194.51 53.00
  A 0.85 0.85 0.0 0 1 195.36 53.80
  L 196.41 74.03
  A 0.43 0.43 0.0 0 1 195.72 74.40
  Z"
/>
<path fill="#742126" d="
  M 261.53 90.18
  Q 273.06 91.72 279.82 99.45
  Q 281.91 101.84 285.38 108.80
  C 299.33 136.70 318.14 165.77 347.72 179.24
  Q 359.08 184.41 371.10 184.62
  A 1.21 1.21 0.0 0 1 372.26 186.04
  L 372.25 186.10
  A 1.93 1.93 0.0 0 1 370.58 187.68
  Q 362.60 188.65 355.31 186.90
  C 324.10 179.40 298.39 153.94 281.48 127.77
  C 277.23 121.18 272.43 113.95 269.79 107.23
  Q 267.37 101.03 264.84 96.65
  C 260.83 89.71 252.84 90.59 246.14 90.46
  A 0.74 0.74 0.0 0 0 245.38 91.20
  L 245.38 127.20
  A 0.77 0.77 0.0 0 0 246.15 127.97
  L 254.16 127.97
  A 0.73 0.73 0.0 0 1 254.89 128.70
  L 254.89 129.51
  A 0.79 0.79 0.0 0 1 254.10 130.30
  L 224.08 130.30
  A 0.73 0.72 90.0 0 1 223.36 129.57
  L 223.36 128.72
  A 0.78 0.78 0.0 0 1 224.14 127.94
  L 232.21 127.94
  A 0.87 0.87 0.0 0 0 233.08 127.07
  L 233.08 56.18
  A 0.97 0.97 0.0 0 0 232.12 55.21
  L 223.64 55.10
  A 0.87 0.87 0.0 0 1 222.81 54.01
  L 222.83 53.95
  A 1.31 1.30 -82.5 0 1 224.09 52.98
  Q 246.41 52.95 251.00 52.95
  Q 259.68 52.96 265.80 53.65
  C 275.66 54.77 283.73 62.11 282.69 72.53
  C 281.56 83.83 270.93 87.68 261.52 89.72
  A 0.24 0.23 -46.9 0 0 261.53 90.18
  Z
  M 245.33 56.31
  L 245.27 86.99
  A 0.83 0.83 0.0 0 0 246.10 87.82
  L 255.14 87.84
  A 14.13 13.57 0.1 0 0 269.30 74.29
  L 269.30 69.09
  A 14.13 13.57 0.1 0 0 255.20 55.50
  L 246.16 55.48
  A 0.83 0.83 0.0 0 0 245.33 56.31
  Z"
/>
<path fill="#742126" d="
  M 351.23 90.16
  C 360.81 91.13 370.48 96.37 371.68 106.72
  C 373.46 122.03 360.94 129.78 347.26 130.11
  Q 330.74 130.50 311.90 130.27
  A 0.72 0.72 0.0 0 1 311.19 129.55
  L 311.19 128.67
  A 0.70 0.70 0.0 0 1 311.89 127.97
  L 319.96 127.97
  A 0.86 0.86 0.0 0 0 320.82 127.11
  L 320.82 56.30
  A 1.12 1.11 0.0 0 0 319.70 55.19
  L 311.24 55.19
  A 0.72 0.72 0.0 0 1 310.53 54.35
  L 310.58 54.04
  A 1.24 1.23 -85.2 0 1 311.78 53.02
  Q 322.99 52.90 335.74 52.99
  Q 346.27 53.07 352.66 54.39
  C 360.94 56.11 368.30 61.74 368.74 70.73
  C 369.29 82.02 360.28 86.83 351.17 89.63
  A 0.27 0.27 0.0 0 0 351.23 90.16
  Z
  M 332.35 55.80
  L 332.47 88.42
  A 0.45 0.45 0.0 0 0 332.92 88.87
  L 341.79 88.84
  A 14.34 14.17 -0.2 0 0 356.08 74.62
  L 356.06 69.44
  A 14.34 14.17 -0.2 0 0 341.67 55.32
  L 332.80 55.35
  A 0.45 0.45 0.0 0 0 332.35 55.80
  Z
  M 332.41 91.67
  L 332.41 127.69
  A 0.32 0.32 0.0 0 0 332.73 128.01
  L 343.44 128.01
  A 14.49 14.43 90.0 0 0 357.87 113.52
  L 357.87 105.84
  A 14.49 14.43 -90.0 0 0 343.44 91.35
  L 332.73 91.35
  A 0.32 0.32 0.0 0 0 332.41 91.67
  Z"
/>
<path fill="#f4f7ee" d="
  M 332.35 55.80
  A 0.45 0.45 0.0 0 1 332.80 55.35
  L 341.67 55.32
  A 14.34 14.17 -0.2 0 1 356.06 69.44
  L 356.08 74.62
  A 14.34 14.17 -0.2 0 1 341.79 88.84
  L 332.92 88.87
  A 0.45 0.45 0.0 0 1 332.47 88.42
  L 332.35 55.80
  Z"
/>
<path fill="#f4f7ee" d="
  M 245.33 56.31
  A 0.83 0.83 0.0 0 1 246.16 55.48
  L 255.20 55.50
  A 14.13 13.57 0.1 0 1 269.30 69.09
  L 269.30 74.29
  A 14.13 13.57 0.1 0 1 255.14 87.84
  L 246.10 87.82
  A 0.83 0.83 0.0 0 1 245.27 86.99
  L 245.33 56.31
  Z"
/>
<path fill="#f4f7ee" d="
  M 484.04 102.25
  L 493.88 73.23
  A 0.31 0.31 0.0 0 1 494.47 73.23
  L 504.21 102.29
  A 0.31 0.31 0.0 0 1 503.91 102.69
  L 484.33 102.66
  A 0.31 0.31 0.0 0 1 484.04 102.25
  Z"
/>
<path fill="#f4f7ee" d="
  M 332.41 91.67
  A 0.32 0.32 0.0 0 1 332.73 91.35
  L 343.44 91.35
  A 14.49 14.43 90.0 0 1 357.87 105.84
  L 357.87 113.52
  A 14.49 14.43 90.0 0 1 343.44 128.01
  L 332.73 128.01
  A 0.32 0.32 0.0 0 1 332.41 127.69
  L 332.41 91.67
  Z"
/>
<path fill="#0f4b56" d="
  M 65.02 159.74
  Q 65.07 159.79 66.34 160.81
  C 67.95 162.09 68.20 164.59 67.74 166.55
  Q 66.77 170.59 62.25 170.83
  Q 57.79 171.06 49.45 171.03
  A 0.71 0.71 0.0 0 1 48.74 170.32
  L 48.74 149.99
  A 0.50 0.50 0.0 0 1 49.28 149.49
  Q 50.97 149.63 61.72 149.66
  C 66.78 149.68 69.14 155.94 65.15 158.83
  A 0.63 0.63 0.0 0 0 65.02 159.74
  Z
  M 51.66 152.71
  L 51.64 158.19
  A 0.43 0.43 0.0 0 0 52.06 158.62
  L 60.38 158.66
  A 3.75 3.12 0.3 0 0 64.15 155.56
  L 64.15 155.46
  A 3.75 3.12 0.3 0 0 60.42 152.32
  L 52.10 152.28
  A 0.43 0.43 0.0 0 0 51.66 152.71
  Z
  M 51.57 161.70
  L 51.61 168.10
  A 0.43 0.43 0.0 0 0 52.04 168.52
  L 61.05 168.48
  A 4.00 3.26 -0.3 0 0 65.03 165.19
  L 65.03 164.45
  A 4.00 3.26 -0.3 0 0 61.01 161.22
  L 52.00 161.26
  A 0.43 0.43 0.0 0 0 51.57 161.70
  Z"
/>
<path fill="#0f4b56" d="
  M 93.07 164.78
  Q 89.53 164.78 88.78 164.79
  A 0.98 0.97 -75.2 0 0 87.94 165.28
  L 85.02 170.31
  A 2.00 1.99 -76.3 0 1 83.37 171.32
  L 83.11 171.33
  A 1.02 1.02 0.0 0 1 82.15 169.90
  Q 86.05 161.12 90.20 151.82
  Q 91.28 149.40 93.07 149.40
  Q 94.86 149.40 95.94 151.82
  Q 100.10 161.12 104.00 169.89
  A 1.02 1.02 0.0 0 1 103.04 171.32
  L 102.78 171.32
  A 2.00 1.99 76.3 0 1 101.13 170.31
  L 98.20 165.28
  A 0.98 0.97 75.2 0 0 97.37 164.79
  Q 96.62 164.78 93.07 164.78
  Z
  M 89.03 161.70
  A 0.31 0.31 0.0 0 0 89.31 162.13
  L 96.58 162.18
  A 0.31 0.31 0.0 0 0 96.87 161.75
  L 93.30 153.12
  A 0.31 0.31 0.0 0 0 92.72 153.12
  L 89.03 161.70
  Z"
/>
<path fill="#0f4b56" d="
  M 184.58 164.81
  Q 181.04 164.81 180.29 164.82
  A 0.98 0.97 -75.2 0 0 179.45 165.31
  L 176.53 170.34
  A 2.00 1.99 -76.3 0 1 174.88 171.35
  L 174.62 171.35
  A 1.02 1.02 0.0 0 1 173.66 169.93
  Q 177.56 161.15 181.71 151.86
  Q 182.79 149.43 184.58 149.43
  Q 186.36 149.43 187.45 151.85
  Q 191.60 161.15 195.50 169.92
  A 1.02 1.02 0.0 0 1 194.54 171.35
  L 194.29 171.34
  A 2.00 1.99 76.3 0 1 192.64 170.33
  L 189.71 165.31
  A 0.98 0.97 75.2 0 0 188.87 164.82
  Q 188.13 164.81 184.58 164.81
  Z
  M 180.86 161.28
  A 0.64 0.64 0.0 0 0 181.45 162.16
  L 187.61 162.14
  A 0.64 0.64 0.0 0 0 188.20 161.26
  L 185.09 153.80
  A 0.64 0.64 0.0 0 0 183.91 153.80
  L 180.86 161.28
  Z"
/>
<path fill="#0f4b56" d="
  M 219.68 161.32
  Q 216.00 156.63 214.03 154.42
  A 0.24 0.24 0.0 0 0 213.61 154.58
  L 213.60 170.22
  A 1.09 1.08 0.0 0 1 212.51 171.31
  L 211.60 171.31
  A 1.09 1.08 0.0 0 1 210.50 170.22
  L 210.51 150.36
  A 0.88 0.86 -6.2 0 1 211.21 149.52
  Q 213.29 149.08 214.73 150.46
  Q 215.84 151.53 222.00 159.39
  Q 225.67 164.08 227.64 166.29
  A 0.24 0.24 0.0 0 0 228.06 166.13
  L 228.07 150.49
  A 1.09 1.08 0.0 0 1 229.16 149.40
  L 230.07 149.40
  A 1.09 1.08 0.0 0 1 231.17 150.49
  L 231.16 170.35
  A 0.88 0.86 -6.2 0 1 230.47 171.19
  Q 228.38 171.63 226.94 170.24
  Q 225.83 169.17 219.68 161.32
  Z"
/>
<path fill="#0f4b56" d="
  M 135.27 160.15
  A 0.44 0.44 0.0 0 0 135.25 160.84
  C 137.99 163.17 137.37 166.73 137.94 170.37
  A 0.92 0.91 86.6 0 1 137.00 171.43
  L 136.35 171.40
  A 1.45 1.45 0.0 0 1 134.97 170.17
  L 134.05 164.05
  A 2.31 2.30 -3.0 0 0 131.86 162.09
  L 122.60 161.70
  A 0.57 0.57 0.0 0 0 122.01 162.27
  L 122.02 170.08
  A 1.17 1.16 -0.1 0 1 120.85 171.24
  L 120.17 171.24
  A 1.14 1.13 -0.1 0 1 119.03 170.11
  L 119.01 150.00
  A 0.32 0.32 0.0 0 1 119.33 149.68
  Q 127.78 149.51 133.52 149.79
  C 134.99 149.87 136.68 150.95 137.28 152.55
  Q 139.06 157.34 135.27 160.15
  Z
  M 122.06 152.51
  L 122.04 159.13
  A 0.22 0.22 0.0 0 0 122.26 159.35
  L 131.01 159.36
  A 3.81 2.84 0.1 0 0 134.83 156.53
  L 134.83 155.15
  A 3.81 2.84 0.1 0 0 131.03 152.30
  L 122.28 152.29
  A 0.22 0.22 0.0 0 0 122.06 152.51
  Z"
/>
<path fill="#0f4b56" d="
  M 247.81 150.16
  A 0.62 0.62 0.0 0 1 248.42 149.54
  L 258.59 149.49
  A 9.27 8.97 -0.3 0 1 267.91 158.41
  L 267.93 162.05
  A 9.27 8.97 -0.3 0 1 258.71 171.07
  L 248.54 171.12
  A 0.62 0.62 0.0 0 1 247.91 170.50
  L 247.81 150.16
  Z
  M 251.05 152.78
  L 250.91 167.98
  A 0.49 0.49 0.0 0 0 251.40 168.47
  L 258.38 168.53
  A 6.63 6.62 0.5 0 0 265.07 161.97
  L 265.09 159.03
  A 6.63 6.62 0.5 0 0 258.52 152.35
  L 251.54 152.29
  A 0.49 0.49 0.0 0 0 251.05 152.78
  Z"
/>
<path fill="#0f4b56" d="
  M 441.28 155.37
  A 0.79 0.79 0.0 0 1 440.47 156.34
  L 439.23 156.29
  A 1.42 1.42 0.0 0 1 438.05 155.57
  L 436.93 153.64
  A 0.75 0.70 -1.7 0 0 436.57 153.32
  Q 433.35 151.94 430.28 152.51
  C 426.44 153.21 425.08 157.83 429.65 158.60
  Q 436.34 159.73 437.60 160.15
  C 443.95 162.29 443.00 169.47 437.42 171.38
  C 432.17 173.19 424.55 172.29 423.12 165.81
  A 1.10 1.10 0.0 0 1 424.24 164.48
  L 424.90 164.51
  A 1.40 1.40 0.0 0 1 426.21 165.58
  C 427.34 170.21 435.59 170.92 438.25 167.53
  C 439.81 165.54 438.96 163.67 436.76 163.12
  Q 433.61 162.34 428.78 161.50
  C 426.18 161.05 423.85 159.49 423.71 156.49
  C 423.41 150.01 430.84 148.91 435.67 150.09
  Q 440.27 151.22 441.28 155.37
  Z"
/>
<path fill="#0f4b56" d="
  M 522.54 169.61
  C 526.48 169.61 529.21 167.82 529.20 163.51
  Q 529.20 157.27 529.15 151.07
  A 1.00 1.00 0.0 0 1 530.24 150.07
  L 531.35 150.17
  A 0.87 0.86 4.7 0 1 532.14 151.09
  Q 532.01 152.95 532.15 163.48
  C 532.23 169.66 528.18 172.16 522.54 172.16
  C 516.90 172.16 512.86 169.66 512.94 163.47
  Q 513.08 152.95 512.95 151.09
  A 0.87 0.86 -4.7 0 1 513.74 150.17
  L 514.85 150.07
  A 1.00 1.00 0.0 0 1 515.94 151.07
  Q 515.89 157.27 515.88 163.51
  C 515.88 167.82 518.60 169.61 522.54 169.61
  Z"
/>
<path fill="#0f4b56" d="
  M 586.70 149.97
  Q 588.51 149.98 589.59 152.42
  Q 593.76 161.81 597.67 170.67
  A 1.03 1.03 0.0 0 1 596.70 172.11
  L 596.44 172.10
  A 2.02 2.01 76.4 0 1 594.78 171.08
  L 591.84 166.00
  A 0.98 0.98 0.0 0 0 591.00 165.50
  Q 590.24 165.50 586.67 165.49
  Q 583.09 165.48 582.34 165.48
  A 0.98 0.98 0.0 0 0 581.49 165.97
  L 578.53 171.04
  A 2.02 2.01 -76.2 0 1 576.86 172.05
  L 576.60 172.06
  A 1.03 1.03 0.0 0 1 575.64 170.62
  Q 579.59 161.78 583.81 152.41
  Q 584.90 149.97 586.70 149.97
  Z
  M 582.69 162.20
  A 0.33 0.33 0.0 0 0 582.99 162.66
  L 590.16 162.65
  A 0.33 0.33 0.0 0 0 590.46 162.19
  L 586.86 153.62
  A 0.33 0.33 0.0 0 0 586.26 153.62
  L 582.69 162.20
  Z"
/>
<path fill="#0f4b56" d="
  M 621.03 159.98
  Q 624.69 164.66 626.65 166.86
  A 0.24 0.24 0.0 0 0 627.07 166.70
  L 627.07 151.11
  A 1.09 1.08 0.0 0 1 628.16 150.03
  L 629.07 150.03
  A 1.09 1.08 0.0 0 1 630.16 151.11
  L 630.16 170.90
  A 0.88 0.86 -6.3 0 1 629.47 171.74
  Q 627.39 172.18 625.96 170.80
  Q 624.85 169.73 618.72 161.91
  Q 615.05 157.24 613.08 155.03
  A 0.24 0.24 0.0 0 0 612.67 155.19
  L 612.67 170.78
  A 1.09 1.08 -0.0 0 1 611.58 171.86
  L 610.67 171.86
  A 1.09 1.08 -0.0 0 1 609.58 170.78
  L 609.58 150.99
  A 0.88 0.86 -6.3 0 1 610.27 150.15
  Q 612.35 149.71 613.78 151.10
  Q 614.89 152.16 621.03 159.98
  Z"
/>
<path fill="#0f4b56" d="
  M 651.31 150.18
  Q 655.74 150.20 659.95 150.25
  A 1.22 1.21 -86.7 0 1 661.14 151.59
  L 661.11 151.87
  A 1.16 1.15 3.7 0 1 659.96 152.87
  L 653.46 152.87
  A 0.62 0.62 0.0 0 0 652.84 153.47
  Q 652.81 154.29 652.76 169.72
  Q 652.76 171.89 651.28 171.89
  Q 649.79 171.88 649.79 169.72
  Q 649.79 154.28 649.77 153.46
  A 0.62 0.62 0.0 0 0 649.15 152.86
  L 642.65 152.84
  A 1.16 1.15 -3.5 0 1 641.50 151.84
  L 641.47 151.56
  A 1.22 1.21 86.9 0 1 642.67 150.22
  Q 646.88 150.19 651.31 150.18
  Z"
/>
<path fill="#0f4b56" d="
  M 379.43 160.68
  A 0.44 0.44 0.0 0 0 379.42 161.37
  C 382.18 163.71 381.56 167.28 382.15 170.93
  A 0.92 0.92 0.0 0 1 381.21 172.00
  L 380.55 171.97
  A 1.46 1.46 0.0 0 1 379.17 170.74
  L 378.22 164.61
  A 2.32 2.31 -3.2 0 0 376.01 162.65
  L 366.72 162.29
  A 0.57 0.57 0.0 0 0 366.13 162.86
  L 366.17 170.70
  A 1.17 1.16 -0.3 0 1 365.00 171.86
  L 364.31 171.86
  A 1.14 1.13 -0.3 0 1 363.17 170.74
  L 363.08 150.55
  A 0.32 0.32 0.0 0 1 363.39 150.23
  Q 371.88 150.03 377.64 150.30
  C 379.12 150.37 380.81 151.44 381.42 153.05
  Q 383.23 157.85 379.43 160.68
  Z
  M 366.27 153.43
  L 366.24 159.17
  A 0.58 0.58 0.0 0 0 366.81 159.75
  L 375.84 159.80
  A 3.30 3.25 -89.7 0 0 379.11 156.51
  L 379.11 156.21
  A 3.30 3.25 -89.7 0 0 375.88 152.90
  L 366.85 152.85
  A 0.58 0.58 0.0 0 0 366.27 153.43
  Z"
/>
<path fill="#0f4b56" d="
  M 398.43 168.90
  L 411.49 168.90
  A 0.59 0.59 0.0 0 1 412.08 169.49
  L 412.08 171.11
  A 0.59 0.59 0.0 0 1 411.49 171.70
  L 395.26 171.70
  A 0.59 0.59 0.0 0 1 394.67 171.11
  L 394.67 150.84
  A 0.59 0.59 0.0 0 1 395.26 150.25
  L 411.39 150.25
  A 0.59 0.59 0.0 0 1 411.98 150.84
  L 411.98 152.29
  A 0.59 0.59 0.0 0 1 411.39 152.88
  L 398.32 152.88
  A 0.59 0.59 0.0 0 0 397.73 153.47
  L 397.73 158.64
  A 0.59 0.59 0.0 0 0 398.32 159.23
  L 411.00 159.23
  A 0.59 0.59 0.0 0 1 411.59 159.82
  L 411.59 161.21
  A 0.59 0.59 0.0 0 1 411.00 161.80
  L 398.43 161.80
  A 0.59 0.59 0.0 0 0 397.84 162.39
  L 397.84 168.31
  A 0.59 0.59 0.0 0 0 398.43 168.90
  Z"
/>
<path fill="#0f4b56" d="
  M 461.27 171.91
  Q 459.78 171.92 459.77 169.75
  Q 459.70 154.32 459.67 153.50
  A 0.62 0.62 0.0 0 0 459.05 152.91
  L 452.55 152.92
  A 1.16 1.15 -3.8 0 1 451.40 151.92
  L 451.37 151.64
  A 1.22 1.21 86.6 0 1 452.56 150.29
  Q 456.77 150.24 461.20 150.21
  Q 465.62 150.21 469.83 150.24
  A 1.22 1.21 -87.0 0 1 471.03 151.57
  L 471.00 151.85
  A 1.16 1.15 3.4 0 1 469.86 152.86
  L 463.36 152.89
  A 0.62 0.62 0.0 0 0 462.74 153.49
  Q 462.72 154.31 462.75 169.74
  Q 462.75 171.91 461.27 171.91
  Z"
/>
<path fill="#0f4b56" d="
  M 490.22 165.46
  Q 486.66 165.45 485.91 165.46
  A 0.98 0.98 0.0 0 0 485.07 165.95
  L 482.12 171.00
  A 2.01 2.00 -76.2 0 1 480.46 172.01
  L 480.20 172.02
  A 1.03 1.02 -78.9 0 1 479.24 170.58
  Q 483.17 161.77 487.35 152.43
  Q 488.44 149.99 490.24 150.00
  Q 492.04 150.00 493.12 152.44
  Q 497.29 161.78 501.19 170.61
  A 1.03 1.02 79.0 0 1 500.23 172.05
  L 499.97 172.04
  A 2.01 2.00 76.4 0 1 498.31 171.02
  L 495.38 165.96
  A 0.98 0.98 0.0 0 0 494.54 165.47
  Q 493.79 165.46 490.22 165.46
  Z
  M 486.39 162.15
  A 0.41 0.41 0.0 0 0 486.78 162.71
  L 493.56 162.58
  A 0.41 0.41 0.0 0 0 493.93 162.00
  L 490.38 153.94
  A 0.41 0.41 0.0 0 0 489.63 153.95
  L 486.39 162.15
  Z"
/>
<path fill="#0f4b56" d="
  M 562.38 161.47
  C 565.13 163.82 564.50 167.39 565.07 171.05
  A 0.92 0.92 0.0 0 1 564.13 172.11
  L 563.47 172.08
  A 1.46 1.46 0.0 0 1 562.09 170.84
  L 561.17 164.70
  A 2.32 2.31 -3.0 0 0 558.97 162.73
  L 549.67 162.33
  A 0.57 0.57 0.0 0 0 549.08 162.90
  L 549.08 170.74
  A 1.17 1.16 -0.0 0 1 547.91 171.90
  L 547.22 171.90
  A 1.14 1.13 0.0 0 1 546.08 170.77
  L 546.08 150.57
  A 0.32 0.32 0.0 0 1 546.40 150.25
  Q 554.89 150.09 560.65 150.38
  C 562.13 150.46 563.82 151.54 564.42 153.15
  Q 566.21 157.96 562.40 160.78
  A 0.44 0.44 0.0 0 0 562.38 161.47
  Z
  M 548.96 153.05
  L 548.90 159.53
  A 0.26 0.26 0.0 0 0 549.16 159.80
  L 558.48 159.88
  A 3.50 3.41 0.5 0 0 562.01 156.50
  L 562.01 156.32
  A 3.50 3.41 0.5 0 0 558.54 152.88
  L 549.22 152.80
  A 0.26 0.26 0.0 0 0 548.96 153.05
  Z"
/>
<path fill="#f4f7ee" d="
  M 122.06 152.51
  A 0.22 0.22 0.0 0 1 122.28 152.29
  L 131.03 152.30
  A 3.81 2.84 0.1 0 1 134.83 155.15
  L 134.83 156.53
  A 3.81 2.84 0.1 0 1 131.01 159.36
  L 122.26 159.35
  A 0.22 0.22 0.0 0 1 122.04 159.13
  L 122.06 152.51
  Z"
/>
<path fill="#f4f7ee" d="
  M 51.66 152.71
  A 0.43 0.43 0.0 0 1 52.10 152.28
  L 60.42 152.32
  A 3.75 3.12 0.3 0 1 64.15 155.46
  L 64.15 155.56
  A 3.75 3.12 0.3 0 1 60.38 158.66
  L 52.06 158.62
  A 0.43 0.43 0.0 0 1 51.64 158.19
  L 51.66 152.71
  Z"
/>
<path fill="#f4f7ee" d="
  M 251.05 152.78
  A 0.49 0.49 0.0 0 1 251.54 152.29
  L 258.52 152.35
  A 6.63 6.62 0.5 0 1 265.09 159.03
  L 265.07 161.97
  A 6.63 6.62 0.5 0 1 258.38 168.53
  L 251.40 168.47
  A 0.49 0.49 0.0 0 1 250.91 167.98
  L 251.05 152.78
  Z"
/>
<path fill="#f4f7ee" d="
  M 366.27 153.43
  A 0.58 0.58 0.0 0 1 366.85 152.85
  L 375.88 152.90
  A 3.30 3.25 -89.7 0 1 379.11 156.21
  L 379.11 156.51
  A 3.30 3.25 -89.7 0 1 375.84 159.80
  L 366.81 159.75
  A 0.58 0.58 0.0 0 1 366.24 159.17
  L 366.27 153.43
  Z"
/>
<path fill="#f4f7ee" d="
  M 548.96 153.05
  A 0.26 0.26 0.0 0 1 549.22 152.80
  L 558.54 152.88
  A 3.50 3.41 0.5 0 1 562.01 156.32
  L 562.01 156.50
  A 3.50 3.41 0.5 0 1 558.48 159.88
  L 549.16 159.80
  A 0.26 0.26 0.0 0 1 548.90 159.53
  L 548.96 153.05
  Z"
/>
<path fill="#f4f7ee" d="
  M 89.03 161.70
  L 92.72 153.12
  A 0.31 0.31 0.0 0 1 93.30 153.12
  L 96.87 161.75
  A 0.31 0.31 0.0 0 1 96.58 162.18
  L 89.31 162.13
  A 0.31 0.31 0.0 0 1 89.03 161.70
  Z"
/>
<path fill="#f4f7ee" d="
  M 180.86 161.28
  L 183.91 153.80
  A 0.64 0.64 0.0 0 1 185.09 153.80
  L 188.20 161.26
  A 0.64 0.64 0.0 0 1 187.61 162.14
  L 181.45 162.16
  A 0.64 0.64 0.0 0 1 180.86 161.28
  Z"
/>
<path fill="#f4f7ee" d="
  M 582.69 162.20
  L 586.26 153.62
  A 0.33 0.33 0.0 0 1 586.86 153.62
  L 590.46 162.19
  A 0.33 0.33 0.0 0 1 590.16 162.65
  L 582.99 162.66
  A 0.33 0.33 0.0 0 1 582.69 162.20
  Z"
/>
<path fill="#f4f7ee" d="
  M 486.39 162.15
  L 489.63 153.95
  A 0.41 0.41 0.0 0 1 490.38 153.94
  L 493.93 162.00
  A 0.41 0.41 0.0 0 1 493.56 162.58
  L 486.78 162.71
  A 0.41 0.41 0.0 0 1 486.39 162.15
  Z"
/>
<path fill="#f4f7ee" d="
  M 51.57 161.70
  A 0.43 0.43 0.0 0 1 52.00 161.26
  L 61.01 161.22
  A 4.00 3.26 -0.3 0 1 65.03 164.45
  L 65.03 165.19
  A 4.00 3.26 -0.3 0 1 61.05 168.48
  L 52.04 168.52
  A 0.43 0.43 0.0 0 1 51.61 168.10
  L 51.57 161.70
  Z"
/>
</svg>
