<?xml version="1.0" encoding="UTF-8" standalone="no"?>
<!DOCTYPE svg PUBLIC "-//W3C//DTD SVG 1.1//EN" "http://www.w3.org/Graphics/SVG/1.1/DTD/svg11.dtd">
<svg xmlns="http://www.w3.org/2000/svg" version="1.1" viewBox="0.00 0.00 64.00 64.00">
<g stroke-width="2.00" fill="none" stroke-linecap="butt">
<path stroke="#94513a" vector-effect="non-scaling-stroke" d="
  M 41.70 28.22
  Q 41.23 29.45 41.20 30.81
  A 0.72 0.71 -79.9 0 0 41.68 31.50
  L 42.82 31.89"
/>
<path stroke="#bc7758" vector-effect="non-scaling-stroke" d="
  M 42.82 31.89
  Q 41.81 31.66 41.01 31.84
  A 1.10 1.06 5.5 0 0 40.28 32.42
  Q 39.50 34.05 40.22 35.67"
/>
<path stroke="#94513a" vector-effect="non-scaling-stroke" d="
  M 40.22 35.67
  Q 35.92 33.18 31.67 33.20
  C 21.63 33.25 13.35 34.76 7.00 28.52"
/>
<path stroke="#bc7758" vector-effect="non-scaling-stroke" d="
  M 56.52 33.39
  Q 55.78 35.03 53.05 34.82
  A 0.34 0.34 0.0 0 0 52.70 35.27
  Q 53.09 36.38 54.22 37.03"
/>
<path stroke="#aa6d52" vector-effect="non-scaling-stroke" d="
  M 44.28 32.23
  L 42.82 31.89"
/>
<path stroke="#aa6d52" vector-effect="non-scaling-stroke" d="
  M 40.22 35.67
  L 42.99 36.73"
/>
</g>
<path fill="#a65b40" d="
  M 41.70 28.22
  Q 41.23 29.45 41.20 30.81
  A 0.72 0.71 -79.9 0 0 41.68 31.50
  L 42.82 31.89
  Q 41.81 31.66 41.01 31.84
  A 1.10 1.06 5.5 0 0 40.28 32.42
  Q 39.50 34.05 40.22 35.67
  Q 35.92 33.18 31.67 33.20
  C 21.63 33.25 13.35 34.76 7.00 28.52
  Q 7.53 20.40 15.50 19.26
  Q 16.26 19.15 20.26 18.52
  A 1.98 1.91 48.4 0 1 21.19 18.59
  L 32.83 22.22
  A 3.67 3.39 -16.4 0 1 33.82 22.71
  L 41.70 28.22
  Z"
/>
<path fill="#824633" d="
  M 44.28 32.23
  L 42.82 31.89
  L 41.68 31.50
  A 0.72 0.71 -79.9 0 1 41.20 30.81
  Q 41.23 29.45 41.70 28.22
  Q 42.51 27.82 43.35 27.80
  A 0.52 0.52 0.0 0 1 43.89 28.28
  L 44.28 32.23
  Z"
/>
<path fill="#824633" d="
  M 40.22 35.67
  L 42.99 36.73
  L 41.91 39.54
  A 1.08 1.05 -0.3 0 1 41.29 40.15
  Q 39.44 40.84 38.30 39.51
  A 1.25 1.23 64.2 0 0 37.13 39.09
  L 27.93 40.79
  A 4.59 4.41 -46.1 0 1 26.63 40.84
  L 14.67 39.55
  A 1.60 1.25 52.0 0 1 14.27 39.45
  Q 6.81 36.55 7.00 28.52
  C 13.35 34.76 21.63 33.25 31.67 33.20
  Q 35.92 33.18 40.22 35.67
  Z"
/>
<path fill="#d29370" d="
  M 42.82 31.89
  L 44.28 32.23
  L 56.52 33.39
  Q 55.78 35.03 53.05 34.82
  A 0.34 0.34 0.0 0 0 52.70 35.27
  Q 53.09 36.38 54.22 37.03
  Q 54.19 37.85 54.34 38.10
  A 1.36 1.36 0.0 0 1 52.51 39.99
  Q 48.10 37.55 42.99 36.73
  L 40.22 35.67
  Q 39.50 34.05 40.28 32.42
  A 1.10 1.06 5.5 0 1 41.01 31.84
  Q 41.81 31.66 42.82 31.89
  Z"
/>
<path fill="#a65b40" d="
  M 54.22 37.03
  Q 53.09 36.38 52.70 35.27
  A 0.34 0.34 0.0 0 1 53.05 34.82
  Q 55.78 35.03 56.52 33.39
  Q 56.93 35.73 56.46 35.96
  Q 55.35 36.49 54.22 37.03
  Z"
/>
</svg>
